<?xml version="1.0" encoding="UTF-8"?>
<!--
    n = 210, s = 14.973813332426634761042, record candidate; polish of records page SVG square-210.svg
-->
<!DOCTYPE svg PUBLIC "-//W3C//DTD SVG 1.1//EN" "http://www.w3.org/Graphics/SVG/1.1/DTD/svg11.dtd" [
    <!ENTITY s "14.973813332426634761042501167364470163682051966822">
]>
<svg xmlns="http://www.w3.org/2000/svg" xmlns:xlink="http://www.w3.org/1999/xlink" width="100%" height="100%" viewBox="0 0 &s; &s;" style="fill:#B2B2B2; stroke:black; stroke-width:0.0012" id="svg">
    <defs>
        <rect width="&s;" height="&s;" id="outer"/>
    </defs>
    <use xlink:href="#outer" style="fill:white; stroke:none"/>
    <rect width="1" height="1" transform="translate(0.5 0.5) rotate(-2.6870635794214688234933348610153488416485235646014e-49) translate(-.5 -.5)"/>
    <rect width="1" height="1" transform="translate(14.470263753020082830857972936866369015266588661051 14.473813332426634761042501167364470163682051966822) rotate(-90.000000000000000000000000000000000000000000000003) translate(-.5 -.5)"/>
    <rect width="1" height="1" transform="translate(14.473813332426634761042501167364470163682051966822 13.473813332426634761042501167364470163682051966822) rotate(-2.2354939186000723302104200174997434073185115066466e-49) translate(-.5 -.5)"/>
    <rect width="1" height="1" transform="translate(0.5 7.473813332426634761042501167364470163682051966822) rotate(-1.1813259330030339392349497124404011726423371556878e-49) translate(-.5 -.5)"/>
    <rect width="1" height="1" transform="translate(0.5 8.473813332426634761042501167364470163682051966822) rotate(-6.480454042511220696015205261593174267792798788367e-50) translate(-.5 -.5)"/>
    <rect width="1" height="1" transform="translate(1.5 8.473813332426634761042501167364470163682051966822) rotate(-90.000000000000000000000000000000000000000000000003) translate(-.5 -.5)"/>
    <rect width="1" height="1" transform="translate(0.5 9.473813332426634761042501167364470163682051966822) rotate(-1.573852413079023356829383136120314404546134941324e-49) translate(-.5 -.5)"/>
    <rect width="1" height="1" transform="translate(1.5 9.473813332426634761042501167364470163682051966822) rotate(-90.000000000000000000000000000000000000000000000003) translate(-.5 -.5)"/>
    <rect width="1" height="1" transform="translate(2.5 9.473813332426634761042501167364470163682051966822) rotate(-90.000000000000000000000000000000000000000000000003) translate(-.5 -.5)"/>
    <rect width="1" height="1" transform="translate(0.5 10.473813332426634761042501167364470163682051966822) rotate(-1.2990741905436851478388065751573563151416457703163e-49) translate(-.5 -.5)"/>
    <rect width="1" height="1" transform="translate(1.5 10.473813332426634761042501167364470163682051966822) rotate(-90.000000000000000000000000000000000000000000000003) translate(-.5 -.5)"/>
    <rect width="1" height="1" transform="translate(2.5 10.473813332426634761042501167364470163682051966822) rotate(-89.999999999999999999999999999999999999999999999997) translate(-.5 -.5)"/>
    <rect width="1" height="1" transform="translate(0.5 11.473813332426634761042501167364470163682051966822) rotate(-89.999999999999999999999999999999999999999999999997) translate(-.5 -.5)"/>
    <rect width="1" height="1" transform="translate(1.5 11.473813332426634761042501167364470163682051966822) rotate(-90.000000000000000000000000000000000000000000000003) translate(-.5 -.5)"/>
    <rect width="1" height="1" transform="translate(2.5 11.473813332426634761042501167364470163682051966822) rotate(-90.000000000000000000000000000000000000000000000003) translate(-.5 -.5)"/>
    <rect width="1" height="1" transform="translate(3.5 11.473813332426634761042501167364470163682051966822) rotate(-90.000000000000000000000000000000000000000000000003) translate(-.5 -.5)"/>
    <rect width="1" height="1" transform="translate(0.5 12.473813332426634761042501167364470163682051966822) rotate(-90.000000000000000000000000000000000000000000000003) translate(-.5 -.5)"/>
    <rect width="1" height="1" transform="translate(1.5 12.473813332426634761042501167364470163682051966822) rotate(-3.3023049406585213807972784912544677630910177919165e-50) translate(-.5 -.5)"/>
    <rect width="1" height="1" transform="translate(2.5 12.473813332426634761042501167364470163682051966822) rotate(-8.560146367634529250989210259726871354895863577447e-50) translate(-.5 -.5)"/>
    <rect width="1" height="1" transform="translate(3.5 12.473813332426634761042501167364470163682051966822) rotate(-1.820920641564231200006467551363451122162670630857e-50) translate(-.5 -.5)"/>
    <rect width="1" height="1" transform="translate(4.5 12.473813332426634761042501167364470163682051966822) rotate(-89.999999999999999999999999999999999999999999999997) translate(-.5 -.5)"/>
    <rect width="1" height="1" transform="translate(0.5 13.473813332426634761042501167364470163682051966822) rotate(-3.1508459753676177024063899597810500663632774814739e-49) translate(-.5 -.5)"/>
    <rect width="1" height="1" transform="translate(1.5 13.473813332426634761042501167364470163682051966822) rotate(-2.6295556101554454150217740607267208804050061812973e-50) translate(-.5 -.5)"/>
    <rect width="1" height="1" transform="translate(2.5 13.473813332426634761042501167364470163682051966822) rotate(-7.7041253991831698037291189357805419059915376246596e-50) translate(-.5 -.5)"/>
    <rect width="1" height="1" transform="translate(3.5 13.473813332426634761042501167364470163682051966822) rotate(-90.000000000000000000000000000000000000000000000003) translate(-.5 -.5)"/>
    <rect width="1" height="1" transform="translate(4.5 13.473813332426634761042501167364470163682051966822) rotate(-90.000000000000000000000000000000000000000000000003) translate(-.5 -.5)"/>
    <rect width="1" height="1" transform="translate(5.5 13.473813332426634761042501167364470163682051966822) rotate(-3.18867613856163203218358708570831650302538320184e-50) translate(-.5 -.5)"/>
    <rect width="1" height="1" transform="translate(0.49999999999999999999999999999999999999999999999999 14.473813332426634761042501167364470163682051966822) rotate(-90.000000000000000000000000000000000000000000000003) translate(-.5 -.5)"/>
    <rect width="1" height="1" transform="translate(1.5 14.473813332426634761042501167364470163682051966822) rotate(-90.000000000000000000000000000000000000000000000003) translate(-.5 -.5)"/>
    <rect width="1" height="1" transform="translate(2.5 14.473813332426634761042501167364470163682051966822) rotate(-90.000000000000000000000000000000000000000000000003) translate(-.5 -.5)"/>
    <rect width="1" height="1" transform="translate(3.5 14.473813332426634761042501167364470163682051966822) rotate(-90.000000000000000000000000000000000000000000000003) translate(-.5 -.5)"/>
    <rect width="1" height="1" transform="translate(4.5 14.473813332426634761042501167364470163682051966822) rotate(-2.2432670311156715508682883580510163811971286232185e-49) translate(-.5 -.5)"/>
    <rect width="1" height="1" transform="translate(5.5 14.473813332426634761042501167364470163682051966822) rotate(-7.3220701293530627782603695842661729375365218221071e-50) translate(-.5 -.5)"/>
    <rect width="1" height="1" transform="translate(6.5 14.472825890455246535616802485631473294874292033259) rotate(-5.6046064798444313893348089804408707205427738128909e-50) translate(-.5 -.5)"/>
    <rect width="1" height="1" transform="translate(7.5 14.473813332426634761042501167364470163682051966822) rotate(-90.000000000000000000000000000000000000000000000003) translate(-.5 -.5)"/>
    <rect width="1" height="1" transform="translate(2.4738133324266347610425011673644701636820519668219 0.5) rotate(-90.000000000000000000000000000000000000000000000003) translate(-.5 -.5)"/>
    <rect width="1" height="1" transform="translate(3.4738133324266347610425011673644701636820519668219 0.5) rotate(-2.0514227575085675830839050045013446523609050104262e-49) translate(-.5 -.5)"/>
    <rect width="1" height="1" transform="translate(4.4738133324266347610425011673644701636820519668219 0.5) rotate(-3.067176084484028450228728915798022924349540683747e-50) translate(-.5 -.5)"/>
    <rect width="1" height="1" transform="translate(5.4738133324266347610425011673644701636820519668219 0.5) rotate(-3.0445708584861323620213758261417212755023162886612e-50) translate(-.5 -.5)"/>
    <rect width="1" height="1" transform="translate(6.4738133324266347610425011673644701636820519668219 0.5) rotate(-90.000000000000000000000000000000000000000000000003) translate(-.5 -.5)"/>
    <rect width="1" height="1" transform="translate(7.4738133324266347610425011673644701636820519668219 0.5) rotate(-4.4761466185804943834822507711597450626822290633609e-50) translate(-.5 -.5)"/>
    <rect width="1" height="1" transform="translate(8.4738133324266347610425011673644701636820519668219 0.5) rotate(-90.000000000000000000000000000000000000000000000003) translate(-.5 -.5)"/>
    <rect width="1" height="1" transform="translate(9.4738133324266347610425011673644701636820519668219 0.5) rotate(-2.9527916558614798236447493223801524440760584474448e-50) translate(-.5 -.5)"/>
    <rect width="1" height="1" transform="translate(10.473813332426634761042501167364470163682051966822 0.5) rotate(-90.000000000000000000000000000000000000000000000003) translate(-.5 -.5)"/>
    <rect width="1" height="1" transform="translate(11.473813332426634761042501167364470163682051966822 0.5) rotate(-1.0386070528182442266883375887236134485411737071655e-49) translate(-.5 -.5)"/>
    <rect width="1" height="1" transform="translate(12.473813332426634761042501167364470163682051966822 0.5) rotate(-90.000000000000000000000000000000000000000000000003) translate(-.5 -.5)"/>
    <rect width="1" height="1" transform="translate(13.473813332426634761042501167364470163682051966822 0.5) rotate(-9.5602368098729169873544300764198582787464448210499e-50) translate(-.5 -.5)"/>
    <rect width="1" height="1" transform="translate(14.473813332426634761042501167364470163682051966822 0.5) rotate(-90.000000000000000000000000000000000000000000000003) translate(-.5 -.5)"/>
    <rect width="1" height="1" transform="translate(3.4738133324266347610425011673644701636820519668219 1.5) rotate(-1.0836054941440992995839461070797559700780266786378e-49) translate(-.5 -.5)"/>
    <rect width="1" height="1" transform="translate(4.4738133324266347610425011673644701636820519668219 1.5) rotate(-90.000000000000000000000000000000000000000000000003) translate(-.5 -.5)"/>
    <rect width="1" height="1" transform="translate(5.4738133324266347610425011673644701636820519668219 1.5) rotate(-90.000000000000000000000000000000000000000000000003) translate(-.5 -.5)"/>
    <rect width="1" height="1" transform="translate(6.4738133324266347610425011673644701636820519668219 1.5) rotate(-90.000000000000000000000000000000000000000000000003) translate(-.5 -.5)"/>
    <rect width="1" height="1" transform="translate(7.4738133324266347610425011673644701636820519668219 1.5) rotate(-4.7553140549883855627440945313017306270907326031839e-50) translate(-.5 -.5)"/>
    <rect width="1" height="1" transform="translate(8.4738133324266347610425011673644701636820519668219 1.5) rotate(-90.000000000000000000000000000000000000000000000003) translate(-.5 -.5)"/>
    <rect width="1" height="1" transform="translate(9.4738133324266347610425011673644701636820519668219 1.5) rotate(-2.7824117990424650010629770395779934263920103938845e-50) translate(-.5 -.5)"/>
    <rect width="1" height="1" transform="translate(10.473813332426634761042501167364470163682051966822 1.5) rotate(-2.4602670893001648885304650958286711108732009282203e-50) translate(-.5 -.5)"/>
    <rect width="1" height="1" transform="translate(11.473813332426634761042501167364470163682051966822 1.5) rotate(-89.999999999999999999999999999999999999999999999997) translate(-.5 -.5)"/>
    <rect width="1" height="1" transform="translate(12.473813332426634761042501167364470163682051966822 1.5) rotate(-89.999999999999999999999999999999999999999999999997) translate(-.5 -.5)"/>
    <rect width="1" height="1" transform="translate(13.473813332426634761042501167364470163682051966822 1.5) rotate(-90.000000000000000000000000000000000000000000000003) translate(-.5 -.5)"/>
    <rect width="1" height="1" transform="translate(14.473813332426634761042501167364470163682051966822 1.5) rotate(-90.000000000000000000000000000000000000000000000003) translate(-.5 -.5)"/>
    <rect width="1" height="1" transform="translate(4.4738133324266347610425011673644701636820519668219 2.5) rotate(-90.000000000000000000000000000000000000000000000003) translate(-.5 -.5)"/>
    <rect width="1" height="1" transform="translate(5.4738133324266347610425011673644701636820519668219 2.5) rotate(-5.5685759166853134026850607016770023524421395076636e-51) translate(-.5 -.5)"/>
    <rect width="1" height="1" transform="translate(6.4738133324266347610425011673644701636820519668219 2.5) rotate(-90.000000000000000000000000000000000000000000000003) translate(-.5 -.5)"/>
    <rect width="1" height="1" transform="translate(7.4738133324266347610425011673644701636820519668219 2.5) rotate(-90.000000000000000000000000000000000000000000000003) translate(-.5 -.5)"/>
    <rect width="1" height="1" transform="translate(8.4738133324266347610425011673644701636820519668219 2.5) rotate(-90.000000000000000000000000000000000000000000000003) translate(-.5 -.5)"/>
    <rect width="1" height="1" transform="translate(9.4738133324266347610425011673644701636820519668219 2.5) rotate(-90.000000000000000000000000000000000000000000000003) translate(-.5 -.5)"/>
    <rect width="1" height="1" transform="translate(10.473813332426634761042501167364470163682051966822 2.5) rotate(-90.000000000000000000000000000000000000000000000003) translate(-.5 -.5)"/>
    <rect width="1" height="1" transform="translate(11.473813332426634761042501167364470163682051966822 2.5) rotate(-2.5884910881243695566535470829342846945944713834437e-50) translate(-.5 -.5)"/>
    <rect width="1" height="1" transform="translate(12.473813332426634761042501167364470163682051966822 2.5) rotate(-2.2295235112670948445731421091362396631107723292114e-52) translate(-.5 -.5)"/>
    <rect width="1" height="1" transform="translate(13.473813332426634761042501167364470163682051966822 2.5) rotate(-6.279347229758785046120196445440881201793331566284e-50) translate(-.5 -.5)"/>
    <rect width="1" height="1" transform="translate(14.473813332426634761042501167364470163682051966822 2.5) rotate(-89.999999999999999999999999999999999999999999999997) translate(-.5 -.5)"/>
    <rect width="1" height="1" transform="translate(4.4738133324266347610425011673644701636820519668219 3.5) rotate(-90.000000000000000000000000000000000000000000000003) translate(-.5 -.5)"/>
    <rect width="1" height="1" transform="translate(5.4738133324266347610425011673644701636820519668219 3.5) rotate(-1.8239229496122297201437143269541129732646413467998e-50) translate(-.5 -.5)"/>
    <rect width="1" height="1" transform="translate(6.4738133324266347610425011673644701636820519668219 3.5) rotate(-89.999999999999999999999999999999999999999999999997) translate(-.5 -.5)"/>
    <rect width="1" height="1" transform="translate(7.4738133324266347610425011673644701636820519668219 3.5) rotate(-90.000000000000000000000000000000000000000000000003) translate(-.5 -.5)"/>
    <rect width="1" height="1" transform="translate(8.4738133324266347610425011673644701636820519668219 3.5) rotate(-89.999999999999999999999999999999999999999999999997) translate(-.5 -.5)"/>
    <rect width="1" height="1" transform="translate(9.4738133324266347610425011673644701636820519668219 3.5) rotate(-90.000000000000000000000000000000000000000000000003) translate(-.5 -.5)"/>
    <rect width="1" height="1" transform="translate(10.473813332426634761042501167364470163682051966822 3.5) rotate(-89.999999999999999999999999999999999999999999999997) translate(-.5 -.5)"/>
    <rect width="1" height="1" transform="translate(11.473813332426634761042501167364470163682051966822 3.5) rotate(-4.4874621135224356615479684422108845497395034024804e-50) translate(-.5 -.5)"/>
    <rect width="1" height="1" transform="translate(12.473813332426634761042501167364470163682051966822 3.5) rotate(-90.000000000000000000000000000000000000000000000003) translate(-.5 -.5)"/>
    <rect width="1" height="1" transform="translate(13.473813332426634761042501167364470163682051966822 3.5) rotate(-90.000000000000000000000000000000000000000000000003) translate(-.5 -.5)"/>
    <rect width="1" height="1" transform="translate(14.473813332426634761042501167364470163682051966822 3.5) rotate(-89.999999999999999999999999999999999999999999999997) translate(-.5 -.5)"/>
    <rect width="1" height="1" transform="translate(5.4738133324266347610425011673644701636820519668219 4.5) rotate(-90.000000000000000000000000000000000000000000000003) translate(-.5 -.5)"/>
    <rect width="1" height="1" transform="translate(6.4738133324266347610425011673644701636820519668219 4.5) rotate(-7.6035855880899747123195864784635906227507476024312e-50) translate(-.5 -.5)"/>
    <rect width="1" height="1" transform="translate(7.4738133324266347610425011673644701636820519668219 4.5) rotate(-89.999999999999999999999999999999999999999999999997) translate(-.5 -.5)"/>
    <rect width="1" height="1" transform="translate(8.4738133324266347610425011673644701636820519668219 4.5) rotate(-1.2053346333670966120784597655967238848245994964344e-51) translate(-.5 -.5)"/>
    <rect width="1" height="1" transform="translate(9.4738133324266347610425011673644701636820519668219 4.5) rotate(-8.6854174389623009276185479449211856835984126118772e-50) translate(-.5 -.5)"/>
    <rect width="1" height="1" transform="translate(10.473813332426634761042501167364470163682051966822 4.5) rotate(-89.999999999999999999999999999999999999999999999997) translate(-.5 -.5)"/>
    <rect width="1" height="1" transform="translate(11.473813332426634761042501167364470163682051966822 4.5) rotate(-2.0917085617566600210342766037252454701736445920082e-50) translate(-.5 -.5)"/>
    <rect width="1" height="1" transform="translate(12.473813332426634761042501167364470163682051966822 4.5) rotate(-90.000000000000000000000000000000000000000000000003) translate(-.5 -.5)"/>
    <rect width="1" height="1" transform="translate(13.473813332426634761042501167364470163682051966822 4.5) rotate(-90.000000000000000000000000000000000000000000000003) translate(-.5 -.5)"/>
    <rect width="1" height="1" transform="translate(14.473813332426634761042501167364470163682051966822 4.5) rotate(-90.000000000000000000000000000000000000000000000003) translate(-.5 -.5)"/>
    <rect width="1" height="1" transform="translate(5.4699564379116569767802502402292393371706602384461 5.5000000000000000000000000000000000000000000000001) rotate(-89.999999999999999999999999999999999999999999999997) translate(-.5 -.5)"/>
    <rect width="1" height="1" transform="translate(6.4701226602590669045866889310650417949631201390945 5.5000000000000000000000000000000000000000000000001) rotate(-90.000000000000000000000000000000000000000000000003) translate(-.5 -.5)"/>
    <rect width="1" height="1" transform="translate(7.470302149504219002551508177066191209322671340508 5.5000000000000000000000000000000000000000000000001) rotate(-3.3686064220184273425519901718672638763155662683586e-49) translate(-.5 -.5)"/>
    <rect width="1" height="1" transform="translate(8.4704370734736897929906259330331118492673710446107 5.5000000000000000000000000000000000000000000000001) rotate(-90.000000000000000000000000000000000000000000000003) translate(-.5 -.5)"/>
    <rect width="1" height="1" transform="translate(9.4710722738283514843260491426525747342438663105808 5.5024133969971658640012403645082709717191790433719) rotate(-89.944530217660996286528807378637451443278864324654) translate(-.5 -.5)"/>
    <rect width="1" height="1" transform="translate(10.471718771902562394870983498835127055847021083995 5.5000000000000000000000000000000000000000000000001) rotate(-89.999999999999999999999999999999999999999999999997) translate(-.5 -.5)"/>
    <rect width="1" height="1" transform="translate(11.471830264565687329536558646723881138330562722914 5.5000000000000000000000000000000000000000000000001) rotate(-90.000000000000000000000000000000000000000000000003) translate(-.5 -.5)"/>
    <rect width="1" height="1" transform="translate(12.47206482373006330988118854172252935727171167104 5.5000000000000000000000000000000000000000000000001) rotate(-90.000000000000000000000000000000000000000000000003) translate(-.5 -.5)"/>
    <rect width="1" height="1" transform="translate(13.47249085548178548776832023995401521296800603081 5.5000000000000000000000000000000000000000000000001) rotate(-90.000000000000000000000000000000000000000000000003) translate(-.5 -.5)"/>
    <rect width="1" height="1" transform="translate(14.473277609837085222466157479276218979490318322477 5.5000000000000000000000000000000000000000000000001) rotate(-90.000000000000000000000000000000000000000000000003) translate(-.5 -.5)"/>
    <rect width="1" height="1" transform="translate(5.4697939449352315222085962324857683061996509661306 6.5) rotate(-89.999999999999999999999999999999999999999999999997) translate(-.5 -.5)"/>
    <rect width="1" height="1" transform="translate(6.4701426092969107628505298720311678764164491273532 6.5000000000000000000000000000000000000000000000001) rotate(-90.000000000000000000000000000000000000000000000003) translate(-.5 -.5)"/>
    <rect width="1" height="1" transform="translate(7.4702498435615005689669490358777403835946811366875 6.5000000000000000000000000000000000000000000000001) rotate(-1.8144508122359707065367394596484071852140853036106e-49) translate(-.5 -.5)"/>
    <rect width="1" height="1" transform="translate(8.4704319565160286487071062338058881538155923899153 6.5000000000000000000000000000000000000000000000001) rotate(-9.4365826109086986965564680356737340344985357507849e-50) translate(-.5 -.5)"/>
    <rect width="1" height="1" transform="translate(9.4709104749071801876425524950047826935946200501982 6.5026284132811985070581297065051914944568464919867) rotate(-89.958384365668429556833926173613206880940746137425) translate(-.5 -.5)"/>
    <rect width="1" height="1" transform="translate(10.471403270079024494521036053561521860467942007664 6.5000000000000000000000000000000000000000000000001) rotate(-90.000000000000000000000000000000000000000000000003) translate(-.5 -.5)"/>
    <rect width="1" height="1" transform="translate(11.472135092812239420823061555683226307072322637979 6.5000000000000000000000000000000000000000000000001) rotate(-1.1694907046789756978592665278142102122686207276146e-50) translate(-.5 -.5)"/>
    <rect width="1" height="1" transform="translate(12.472329644868851872274717463078824606900532842054 6.5000000000000000000000000000000000000000000000001) rotate(-89.999999999999999999999999999999999999999999999997) translate(-.5 -.5)"/>
    <rect width="1" height="1" transform="translate(13.472650422747944887191806670613301299856193545496 6.5000000000000000000000000000000000000000000000001) rotate(-2.4713418849096607380244121488016738889350869451132e-49) translate(-.5 -.5)"/>
    <rect width="1" height="1" transform="translate(14.473031504827220672382281919997925510636396087486 6.5000000000000000000000000000000000000000000000001) rotate(-9.8180984161300079757853007375672983254250100744653e-50) translate(-.5 -.5)"/>
    <rect width="1" height="1" transform="translate(5.469955773849122238061681604114307349477130311215 7.5000000000000000000000000000000000000000000000001) rotate(-90.000000000000000000000000000000000000000000000003) translate(-.5 -.5)"/>
    <rect width="1" height="1" transform="translate(6.4701309574901024745940958867396467533099448373641 7.5000000000000000000000000000000000000000000000001) rotate(-4.3141657333746856429734390894520395168451948373404e-50) translate(-.5 -.5)"/>
    <rect width="1" height="1" transform="translate(7.4703405748161717525590575311421297631626880423547 7.5) rotate(-1.6333427658985492433924379368214318518803921400443e-49) translate(-.5 -.5)"/>
    <rect width="1" height="1" transform="translate(8.4704120093921950740423198407128465118380684191915 7.5000000000000000000000000000000000000000000000001) rotate(-2.8610161190710993845062711709911227140508029332929e-49) translate(-.5 -.5)"/>
    <rect width="1" height="1" transform="translate(9.4738133324266347610425011673644701636820519668219 7.5030148662009497637874712829063611117293285695416) rotate(-4.9715887732354782536586667686917762195383626966213e-50) translate(-.5 -.5)"/>
    <rect width="1" height="1" transform="translate(10.473813332426634761042501167364470163682051966822 7.5000000000000000000000000000000000000000000000001) rotate(-1.7013488016058199023375144440281390299219668472161e-49) translate(-.5 -.5)"/>
    <rect width="1" height="1" transform="translate(11.473813332426634761042501167364470163682051966822 7.5000000000000000000000000000000000000000000000001) rotate(-89.999999999999999999999999999999999999999999999997) translate(-.5 -.5)"/>
    <rect width="1" height="1" transform="translate(12.473813332426634761042501167364470163682051966822 7.5000000000000000000000000000000000000000000000001) rotate(-90.000000000000000000000000000000000000000000000003) translate(-.5 -.5)"/>
    <rect width="1" height="1" transform="translate(13.473813332426634761042501167364470163682051966822 7.5000000000000000000000000000000000000000000000001) rotate(-2.0618574786518865295421700158052508144279951246092e-49) translate(-.5 -.5)"/>
    <rect width="1" height="1" transform="translate(14.473813332426634761042501167364470163682051966822 7.5000000000000000000000000000000000000000000000001) rotate(-1.4836441287346311753718181745445774404246228955336e-49) translate(-.5 -.5)"/>
    <rect width="1" height="1" transform="translate(8.4738133324266347610425011673644701636820519668219 8.5000000000000000000000000000000000000000000000001) rotate(-2.8743689502584995131575904728702881093646896387199e-50) translate(-.5 -.5)"/>
    <rect width="1" height="1" transform="translate(9.4738133324266347610425011673644701636820519668219 8.5030837088183582348725988119730458740740646509818) rotate(-1.1959465150842703914246305417723738325862357063121e-50) translate(-.5 -.5)"/>
    <rect width="1" height="1" transform="translate(10.473813332426634761042501167364470163682051966822 8.5000000000000000000000000000000000000000000000001) rotate(-90.000000000000000000000000000000000000000000000003) translate(-.5 -.5)"/>
    <rect width="1" height="1" transform="translate(11.473813332426634761042501167364470163682051966822 8.5000000000000000000000000000000000000000000000001) rotate(-4.9696988343240904668221423928900807541998751827673e-50) translate(-.5 -.5)"/>
    <rect width="1" height="1" transform="translate(12.473813332426634761042501167364470163682051966822 8.5000000000000000000000000000000000000000000000001) rotate(-6.0040638321010530677977665585414598828527599098938e-50) translate(-.5 -.5)"/>
    <rect width="1" height="1" transform="translate(13.473813332426634761042501167364470163682051966822 8.5000000000000000000000000000000000000000000000001) rotate(-90.000000000000000000000000000000000000000000000003) translate(-.5 -.5)"/>
    <rect width="1" height="1" transform="translate(14.473813332426634761042501167364470163682051966822 8.5000000000000000000000000000000000000000000000001) rotate(-1.6383443773397314674941183529351012521346334098293e-49) translate(-.5 -.5)"/>
    <rect width="1" height="1" transform="translate(12.473813332426634761042501167364470163682051966822 9.5000000000000000000000000000000000000000000000001) rotate(-3.0681609537363903232544701413500736523205329413194e-50) translate(-.5 -.5)"/>
    <rect width="1" height="1" transform="translate(13.473813332426634761042501167364470163682051966822 9.5000000000000000000000000000000000000000000000001) rotate(-90.000000000000000000000000000000000000000000000003) translate(-.5 -.5)"/>
    <rect width="1" height="1" transform="translate(14.473813332426634761042501167364470163682051966822 9.5000000000000000000000000000000000000000000000001) rotate(-2.6046024175330825392236256739108129970062054092067e-49) translate(-.5 -.5)"/>
    <rect width="1" height="1" transform="translate(13.473813332426634761042501167364470163682051966822 10.5) rotate(-8.7709561103266025069942881885976251536619517244132e-50) translate(-.5 -.5)"/>
    <rect width="1" height="1" transform="translate(14.473813332426634761042501167364470163682051966822 10.5) rotate(-90.000000000000000000000000000000000000000000000003) translate(-.5 -.5)"/>
    <rect width="1" height="1" transform="translate(14.473813332426634761042501167364470163682051966822 11.5) rotate(-1.4654534320008482417798967031166479891517595525114e-49) translate(-.5 -.5)"/>
    <rect width="1" height="1" transform="translate(3.5158497990590529229117242281332965970456445917959 10.396123938957201460690450804138948951339333724354) rotate(-88.153681678891585889180592155573575063889578330977) translate(-.5 -.5)"/>
    <rect width="1" height="1" transform="translate(3.873548366190466338161291621836314241342746626156 9.4071350998097790726590553564981523148898270185151) rotate(-88.153681678891585889180592155573575063889578330977) translate(-.5 -.5)"/>
    <rect width="1" height="1" transform="translate(4.5133398185579047264238023025911465979266481579943 10.490101379943758283501999344108763492055157879299) rotate(-88.153681678891585889180592155573575063889578330977) translate(-.5 -.5)"/>
    <rect width="1" height="1" transform="translate(4.8710383856893181416733696962941642422237501923544 9.5011125407963358954706038964679668556056511734594) rotate(-88.153681678891585889180592155573575063889578330977) translate(-.5 -.5)"/>
    <rect width="1" height="1" transform="translate(5.3445822516961214330653550669880953435617508601477 8.5000000000000000000000000000000000000000000000001) rotate(-89.999999999999999999999999999999999999999999999997) translate(-.5 -.5)"/>
    <rect width="1" height="1" transform="translate(6.3445822516961214330653550669880953435617508601477 8.5000000000000000000000000000000000000000000000001) rotate(-89.999999999999999999999999999999999999999999999997) translate(-.5 -.5)"/>
    <rect width="1" height="1" transform="translate(7.3445822516961214330653550669880953435617508601477 8.5000000000000000000000000000000000000000000000001) rotate(-1.1536923623376267519333564890774807842683807325177e-49) translate(-.5 -.5)"/>
    <rect width="1" height="1" transform="translate(11.433709029694593334628548125268886401968929753275 9.5401043027320414264139530420955837617131222135472) rotate(-85.197620844854591155044486690510771788633314799683) translate(-.5 -.5)"/>
    <rect width="1" height="1" transform="translate(3.2742219277693493454368063912204187107402174389613 8.3919031452509172594880225139262863628842040872517) rotate(-25.778398511570060519651724964406751381027798259411) translate(-.5 -.5)"/>
    <rect width="1" height="1" transform="translate(4.1768950367680273534505399343329148594032162712665 7.9615467532141431868778195342508557348426848294778) rotate(-25.778398511570060519651724964406751381027798259411) translate(-.5 -.5)"/>
    <rect width="1" height="1" transform="translate(2.4200734611953788684749396896507361219027262064539 7.693902049882439167448974305030514264371461931337) rotate(-25.778398511570060519651724964406751381027798259411) translate(-.5 -.5)"/>
    <rect width="1" height="1" transform="translate(3.3205562581725425615337361911731996472448257445595 7.25901041700341470127814054124261682139649229168) rotate(-25.778398511570060519651724964406751381027798259411) translate(-.5 -.5)"/>
    <rect width="1" height="1" transform="translate(4.2283071198393381582776679609827739865345586872984 6.8266528649214523219124259524419550905183354308852) rotate(-25.151264468629535804502889332261009718221085854384) translate(-.5 -.5)"/>
    <rect width="1" height="1" transform="translate(1.5659249946214083915130729880810535330652349739465 6.9959009545139610754099260961347421658587197754223) rotate(-25.778398511570060519651724964406751381027798259411) translate(-.5 -.5)"/>
    <rect width="1" height="1" transform="translate(2.4664077915985720845718694896035170584073345120521 6.5610093216349366092390923323468447228837501357654) rotate(-25.778398511570060519651724964406751381027798259411) translate(-.5 -.5)"/>
    <rect width="1" height="1" transform="translate(3.3668905885757357776306659911259805837494340501576 6.1261176887559121430682585685589472799087804961084) rotate(-25.778398511570060519651724964406751381027798259411) translate(-.5 -.5)"/>
    <rect width="1" height="1" transform="translate(4.2829101410573796896915956730091440503419301347529 5.6966430954126964852036506683487587906305082359011) rotate(-24.429142950742431172410553374035664806345908214969) translate(-.5 -.5)"/>
    <rect width="1" height="1" transform="translate(0.68141259288915841244134281207140064733861825016306 6.3062449817860776243641532653911094067285189976904) rotate(-25.749164954949164284013329338348707513292795748785) translate(-.5 -.5)"/>
    <rect width="1" height="1" transform="translate(1.5845972565559069801194707305258438498276013679038 5.8763677287084213969486633754793184298429498579406) rotate(-25.778398511570060519651724964406751381027798259411) translate(-.5 -.5)"/>
    <rect width="1" height="1" transform="translate(2.4850800535330706731782672320483073751697009060093 5.4414760958293969307778296116914209868679802182837) rotate(-25.778398511570060519651724964406751381027798259411) translate(-.5 -.5)"/>
    <rect width="1" height="1" transform="translate(3.3855628505102343662370637335707709005118004441149 5.0065844629503724646069958479035235438930105786268) rotate(-25.778398511570060519651724964406751381027798259411) translate(-.5 -.5)"/>
    <rect width="1" height="1" transform="translate(0.66756835064055713667834790197336075695353296913154 5.2026804519735785194409910042366235024912466049073) rotate(-25.749164954949164284013329338348707513292795748786) translate(-.5 -.5)"/>
    <rect width="1" height="1" transform="translate(1.5706494541748439607277779968033456223386148169258 4.772588488523079133731801776594938946558798085021) rotate(-25.778398511570060519651724964406751381027798259411) translate(-.5 -.5)"/>
    <rect width="1" height="1" transform="translate(2.4711322511520076537865744983258091476807143550313 4.337696855644054667560968012807041503583828445364) rotate(-25.778398511570060519651724964406751381027798259411) translate(-.5 -.5)"/>
    <rect width="1" height="1" transform="translate(3.3087159339499204084338332112476666221178254428937 2.665097398476714352608667956116803541564226523928) rotate(-25.150836119340131384292636723696288975577421818078) translate(-.5 -.5)"/>
    <rect width="1" height="1" transform="translate(2.4199508343588697954967255161154765057136893734809 3.125087106854375103578690141995426369698847180781) rotate(-25.150836119340131384292636723696288975577421818078) translate(-.5 -.5)"/>
    <rect width="1" height="1" transform="translate(0.66509739847671435260866795611680354156422652392821 4.093364628301921723566614219701805494793823587499) rotate(-25.150836119340131384292636723696288975577421818078) translate(-.5 -.5)"/>
    <rect width="1" height="1" transform="translate(1.5656342131042011707160980324948682404919361882982 3.658446907390752532514057955421101383362771540716) rotate(-25.150836119340131384292636723696288975577421818078) translate(-.5 -.5)"/>
    <rect width="1" height="1" transform="translate(0.66823172574933347006491359766608767147966446989246 2.975328707119976731372583385801889490105721897585) rotate(-25.912866511945849902488932601525935829619675997852) translate(-.5 -.5)"/>
    <rect width="1" height="1" transform="translate(2.4095782101501648500385501066309234843949220870837 1.982822265351544929037208196764811020657798149134) rotate(-25.912866511945849902488932601525935829619675997852) translate(-.5 -.5)"/>
    <rect width="1" height="1" transform="translate(1.5211959240167516845021032503888044399790649052738 2.442625983255123072716951997041044900352167418761) rotate(-25.912866511945849902488932601525935829619675997852) translate(-.5 -.5)"/>
    <rect width="1" height="1" transform="translate(4.432494623855561099862555723748534399840837112117 4.541318708571073661179945443615935763841214854705) rotate(-4.9550798390114490059078439168249068066951933438566) translate(-.5 -.5)"/>
    <rect width="1" height="1" transform="translate(3.3243222467014917735276087114054113717925834803455 3.804881163328529343631661410717283017954290000426) rotate(-25.778398511570060519651724964406751381027798259411) translate(-.5 -.5)"/>
    <rect width="1" height="1" transform="translate(1.5566140118827466356013604539082067158955216517023 1.285457569312025884004277854348377407041947684031) rotate(-25.912866511945849902488932601525935829619675997852) translate(-.5 -.5)"/>
    <rect width="1" height="1" transform="translate(0.66823172574933347006491359766608767147966446989246 1.745261287215604027684021654624611286736316953657) rotate(-25.912866511945849902488932601525935829619675997852) translate(-.5 -.5)"/>
    <rect width="1" height="1" transform="translate(12.925404181474087245467907460309653194926337445808 14.327909072139902277043671306901105158525704552157) rotate(-69.01392692569758533365726278091455121663800508268) translate(-.5 -.5)"/>
    <rect width="1" height="1" transform="translate(13.287806975170040649437856093318822391498572482443 13.395876320395734403989787446858355921962155611164) rotate(-69.01392692569758533365726278091455121663800508268) translate(-.5 -.5)"/>
    <rect width="1" height="1" transform="translate(11.854359091238903341744174982300374605859551916706 14.327909072139902277043671306901105158525704552157) rotate(-69.01392692569758533365726278091455121663800508268) translate(-.5 -.5)"/>
    <rect width="1" height="1" transform="translate(12.210996176162147642247850753046974037227786137491 13.393664679995895488185186869670301093088952103317) rotate(-69.01392692569758533365726278091455121663800508268) translate(-.5 -.5)"/>
    <rect width="1" height="1" transform="translate(12.55540947692154020612558861656251971620082680046 12.447950646736576153032548473527117933262251665) rotate(-68.283776546205765167339342519648635260335192740999) translate(-.5 -.5)"/>
    <rect width="1" height="1" transform="translate(10.772205144490674072595807826631121826342057735738 14.342225541456858429342837029403113620599999950484) rotate(-71.72184410750122918399883803568036725025555030181) translate(-.5 -.5)"/>
    <rect width="1" height="1" transform="translate(11.113807420338511721088472751047093789304033150383 13.401919386056516707050786567096700822659928853297) rotate(-71.72184410750122918399883803568036725025555030181) translate(-.5 -.5)"/>
    <rect width="1" height="1" transform="translate(11.465977677760121813150157990440915611239259332351 12.465103787229337147931603663737447464300145453114) rotate(-71.72184410750122918399883803568036725025555030181) translate(-.5 -.5)"/>
    <rect width="1" height="1" transform="translate(11.810039771180935826918051421374666024135635862777 11.525610098461170624094769103362737971591170367595) rotate(-71.72184410750122918399883803568036725025555030181) translate(-.5 -.5)"/>
    <rect width="1" height="1" transform="translate(12.240173027719856968161702290042675222353151382087 10.614545326046079751899320854026866286689978610178) rotate(-71.721844107501229183998838035680367250255550301804) translate(-.5 -.5)"/>
    <rect width="1" height="1" transform="translate(9.6970832123897687091504649119426616090377961847671 14.341195361589032489980981968158054578570855838849) rotate(-71.535604540694848387270962219005880202048049525447) translate(-.5 -.5)"/>
    <rect width="1" height="1" transform="translate(10.031326240933410098214637436763694354903871092822 13.39852730110652854008937991774853327928682567216) rotate(-71.535604540694848387270962219005880202048049525447) translate(-.5 -.5)"/>
    <rect width="1" height="1" transform="translate(10.37289986341946648225418500194518320625394590062 12.458306958756914031536643270690143016261011528224) rotate(-71.535604540694848387270962219005880202048049525447) translate(-.5 -.5)"/>
    <rect width="1" height="1" transform="translate(10.725030009869455700747783725092445013395161538691 11.521611487015299367662851381414670893484939299181) rotate(-71.535604540694848387270962219005880202048049525447) translate(-.5 -.5)"/>
    <rect width="1" height="1" transform="translate(11.069060732312352744230982174930378661452915965096 10.582211581340519885558607363438274796510023861759) rotate(-71.535604540694848387270962219005880202048049525447) translate(-.5 -.5)"/>
    <rect width="1" height="1" transform="translate(8.6326179708376022710615191992064155851111961279733 14.341195361589032489980981968158054578570855838849) rotate(-71.535604540694848387270962219005880202048049525447) translate(-.5 -.5)"/>
    <rect width="1" height="1" transform="translate(8.9585028609343527212314344564329547847133725569937 13.395736481263775726514334507555683563681233824312) rotate(-71.535604540694848387270962219005880202048049525447) translate(-.5 -.5)"/>
    <rect width="1" height="1" transform="translate(9.2927458894779941102956069812539875305794474650488 12.453068420781271776622732457146162264397203657623) rotate(-71.535604540694848387270962219005880202048049525447) translate(-.5 -.5)"/>
    <rect width="1" height="1" transform="translate(9.6343195119640504943351545464354763819295222728467 11.512848078431657268069995810087772001371389513688) rotate(-71.535604540694848387270962219005880202048049525447) translate(-.5 -.5)"/>
    <rect width="1" height="1" transform="translate(9.986449658414039712828753269582738189070737910918 10.576152606690042604196203920812299878595317284645) rotate(-71.535604540694848387270962219005880202048049525447) translate(-.5 -.5)"/>
    <rect width="1" height="1" transform="translate(10.318097407676074123270242880238810548099435367684 9.6326179708376022710615191992064155851111961279734) rotate(-71.535604540694848387270962219005880202048049525447) translate(-.5 -.5)"/>
    <rect width="1" height="1" transform="translate(7.8887865260981176418452527995812941744960912740672 13.401970234262110255767606952817875041635038733186) rotate(-70.130175495539180699981920643813809960313475470331) translate(-.5 -.5)"/>
    <rect width="1" height="1" transform="translate(8.2209603003849719144496053544354972911539694022355 12.45871639741909583168364672632436350865548960664) rotate(-70.130175495539180699981920643813809960313475470331) translate(-.5 -.5)"/>
    <rect width="1" height="1" transform="translate(8.5551515293656195925359879081357145286561432202216 11.516191667460235656408194259589796534155500831623) rotate(-70.130175495539180699981920643813809960313475470331) translate(-.5 -.5)"/>
    <rect width="1" height="1" transform="translate(8.8966089255417833988789886647112661488850134221708 10.576292925851926809783659578206424356591058908704) rotate(-70.130175495539180699981920643813809960313475470331) translate(-.5 -.5)"/>
    <rect width="1" height="1" transform="translate(9.2485300670471747511156522507810723789637773442569 9.6401757753628869475249777734417553114263136016052) rotate(-70.130175495539180699981920643813809960313475470331) translate(-.5 -.5)"/>
    <rect width="1" height="1" transform="translate(7.1665231305654693068830381937208325561837898916911 12.419716483085600522418208244909997523526667672459) rotate(-71.653789091271238661223691969604297615154587664126) translate(-.5 -.5)"/>
    <rect width="1" height="1" transform="translate(7.4987429945955158338592521005225044268582572344526 11.47633511491520492018125230304254711557262259578) rotate(-71.653789091271238661223691969604297615154587664126) translate(-.5 -.5)"/>
    <rect width="1" height="1" transform="translate(7.8329997063548102090137304965847533228366396630772 10.533629192675741528311917979171943360144565989641) rotate(-71.653789091271238661223691969604297615154587664126) translate(-.5 -.5)"/>
    <rect width="1" height="1" transform="translate(8.1745924322501612184239068874738479230759081320143 9.5933559907748232290237410357255900521743291167385) rotate(-71.653789091271238661223691969604297615154587664126) translate(-.5 -.5)"/>
    <rect width="1" height="1" transform="translate(6.7702240374206006760292395740686984706609552987122 13.341848322417204485431691936000777785411504900379) rotate(-71.653789091271238661223691969604297615154587664126) translate(-.5 -.5)"/>
    <rect width="1" height="1" transform="translate(6.4122216160787657009448355016503872071168261670272 11.527339196528111863646080104366530619810432875566) rotate(-69.879471221988268052969448769272057085191892867981) translate(-.5 -.5)"/>
    <rect width="1" height="1" transform="translate(6.7444104667481842392557135897070850081343511260715 10.584042482353206096749378515300025989911474331501) rotate(-69.879471221988268052969448769272057085191892867987) translate(-.5 -.5)"/>
    <rect width="1" height="1" transform="translate(7.0786133088097477030553459757165557959672852199933 9.6414836027126874911733433066242308596488905952748) rotate(-69.879471221988268052969448769272057085191892867981) translate(-.5 -.5)"/>
    <rect width="1" height="1" transform="translate(5.6794149176536109377175205726747236488318749590606 10.584042482353206096749378515300025989911474331501) rotate(-69.879471221988268052969448769272057085191892867981) translate(-.5 -.5)"/>
    <rect width="1" height="1" transform="translate(6.0136177597151744015171529586841944366648090529825 9.6414836027126874911733433066242308596488905952748) rotate(-69.879471221988268052969448769272057085191892867981) translate(-.5 -.5)"/>
    <rect width="1" height="1" transform="translate(13.701752575937126272739604434204867134234607174933 12.421559426911832559112982452450069456877971505098) rotate(-61.917591802106082223478932158754530382871177659677) translate(-.5 -.5)"/>
    <rect width="1" height="1" transform="translate(12.979157502969597992141389381890815799692319065532 11.540325460964780186822156191486974575128198035275) rotate(-68.283776546205765167339342519648635260335192741005) translate(-.5 -.5)"/>
    <rect width="1" height="1" transform="translate(6.0166725966547634919275177325109944902166669020452 12.447423636413234489575007849637434379884866789495) rotate(-69.879471221988268052969448769272057085191892867981) translate(-.5 -.5)"/>
    <rect width="1" height="1" transform="translate(5.2846246953188856784960235112444912915388979100467 11.556370527683713662003283340170715782811940331596) rotate(-63.973492286029719711216449590048242023478595596977) translate(-.5 -.5)"/>
    <use xlink:href="#outer" style="fill:none"/>
</svg>
