<?xml version="1.0" encoding="UTF-8"?>
<!--
    n = 307 unit squares. Refinement of the records-page packing to the exact local optimum of its contact structure (contacts closed to 1e-49, then scaled by 1 + 1e-45 so every gap is positive). Coordinates to 50 digits. See README in this folder.
-->
<!DOCTYPE svg PUBLIC "-//W3C//DTD SVG 1.1//EN" "http://www.w3.org/Graphics/SVG/1.1/DTD/svg11.dtd" [
    <!ENTITY s "17.982051999528444666383482677837269299332234424804">
]>
<svg xmlns="http://www.w3.org/2000/svg" xmlns:xlink="http://www.w3.org/1999/xlink" width="100%" height="100%" viewBox="0 0 &s; &s;" style="fill:#B2B2B2; stroke:black; stroke-width:0.0012" id="svg">
    <defs>
        <rect width="&s;" height="&s;" id="outer"/>
    </defs>
    <use xlink:href="#outer" style="fill:white; stroke:none"/>
    <rect width="1" height="1" transform="translate(0.5000000000000000000000000000000000000000000005 0.555608034114414264921695860559053316704374419921) rotate(-1.8593526750885494927391744785147350129130134786897e-53) translate(-.5 -.5)"/>
    <rect width="1" height="1" transform="translate(1.5000000000000000000000000000000000000000000015 0.5000000000000000000000000000000000000000000005) rotate(-1.267505938515710529800263701807602390713271220316e-53) translate(-.5 -.5)"/>
    <rect width="1" height="1" transform="translate(17.422234661855995341284142348038399498353075112618 17.482051999528444666383482677837269299332234424304) rotate(-2.698030327170210093660809304246686877969007387064e-48) translate(-.5 -.5)"/>
    <rect width="1" height="1" transform="translate(17.482051999528444666383482677837269299332234424304 16.482051999528444666383482677837269299332234423304) rotate(-2.4191297472924498930281338845183274627967223768516e-53) translate(-.5 -.5)"/>
    <rect width="1" height="1" transform="translate(0.5000000000000000000000000000000000000000000005 8.482051999528444666383482677837269299332234415304) rotate(-2.698030327170210093660809304246686877969007387064e-48) translate(-.5 -.5)"/>
    <rect width="1" height="1" transform="translate(0.50014915957117478395588250297405085008031836306774 9.482051999528444666383482677837269299332234416304) rotate(-1.1227552469303318037326310568317486108689317208444e-53) translate(-.5 -.5)"/>
    <rect width="1" height="1" transform="translate(0.5000000000000000000000000000000000000000000005 10.482051999528444666383482677837269299332234417304) rotate(-6.8988976299447838270481140559516223511812876893416e-54) translate(-.5 -.5)"/>
    <rect width="1" height="1" transform="translate(1.5000000000000000000000000000000000000000000015 10.482051999528444666383482677837269299332234417304) rotate(-1.6333365224442139775633221435159390613922079086775e-54) translate(-.5 -.5)"/>
    <rect width="1" height="1" transform="translate(0.5000000000000000000000000000000000000000000005 11.482051999528444666383482677837269299332234418304) rotate(-2.698030327170210093660809304246686877969007387064e-48) translate(-.5 -.5)"/>
    <rect width="1" height="1" transform="translate(1.5000000000000000000000000000000000000000000015 11.482051999528444666383482677837269299332234418304) rotate(-1.789405054014747744683603674298055647941271692872e-54) translate(-.5 -.5)"/>
    <rect width="1" height="1" transform="translate(2.5000000000000000000000000000000000000000000025 11.482051999528444666383482677837269299332234418304) rotate(-2.4264585984665690092555211388871396081784756667213e-54) translate(-.5 -.5)"/>
    <rect width="1" height="1" transform="translate(0.5000000000000000000000000000000000000000000005 12.482051999528444666383482677837269299332234419304) rotate(-1.3375683906227969462565493492627613055570941619003e-53) translate(-.5 -.5)"/>
    <rect width="1" height="1" transform="translate(1.5000000000000000000000000000000000000000000015 12.482051999528444666383482677837269299332234419304) rotate(-2.698030327170210093660809304246686877969007387064e-48) translate(-.5 -.5)"/>
    <rect width="1" height="1" transform="translate(2.5000000000000000000000000000000000000000000025 12.482051999528444666383482677837269299332234419304) rotate(-1.7791494892032887164353702740630146519328880182704e-54) translate(-.5 -.5)"/>
    <rect width="1" height="1" transform="translate(3.52073008010182642024687992457050732779767401128 12.450030510309512335583211372214892483641104624765) rotate(-88.470609270602380593462975517245237939444081407488) translate(-.5 -.5)"/>
    <rect width="1" height="1" transform="translate(0.5000000000000000000000000000000000000000000005 13.482051999528444666383482677837269299332234420304) rotate(-6.4073519028533846087570906264851017037959078821654e-54) translate(-.5 -.5)"/>
    <rect width="1" height="1" transform="translate(1.5000000000000000000000000000000000000000000015 13.482051999528444666383482677837269299332234420304) rotate(-2.698030327170210093660809304246686877969007387064e-48) translate(-.5 -.5)"/>
    <rect width="1" height="1" transform="translate(2.5000000000000000000000000000000000000000000025 13.482051999528444666383482677837269299332234420304) rotate(-2.698030327170210093660809304246686877969007387064e-48) translate(-.5 -.5)"/>
    <rect width="1" height="1" transform="translate(3.5000000000000000000000000000000000000000000035 13.468498125212823060666185766294305637888925064041) rotate(-2.6321321693426558149746233980485469569239462826646e-54) translate(-.5 -.5)"/>
    <rect width="1" height="1" transform="translate(4.5000000000000000000000000000000000000000000045 13.482051999528444666383482677837269299332234420304) rotate(-1.7657717954402919856859402576356527478553267404731e-53) translate(-.5 -.5)"/>
    <rect width="1" height="1" transform="translate(0.5000000000000000000000000000000000000000000005 14.482051999528444666383482677837269299332234421304) rotate(-5.3971284087185239417430511569826170899701783036823e-54) translate(-.5 -.5)"/>
    <rect width="1" height="1" transform="translate(1.5000000000000000000000000000000000000000000015 14.482051999528444666383482677837269299332234421304) rotate(-2.698030327170210093660809304246686877969007387064e-48) translate(-.5 -.5)"/>
    <rect width="1" height="1" transform="translate(2.5000000000000000000000000000000000000000000025 14.482051999528444666383482677837269299332234421304) rotate(-2.698030327170210093660809304246686877969007387064e-48) translate(-.5 -.5)"/>
    <rect width="1" height="1" transform="translate(3.5000000000000000000000000000000000000000000035 14.480936742128254193902510729850609037257409386642) rotate(-6.8659864988916324653405405932609642848497739933878e-54) translate(-.5 -.5)"/>
    <rect width="1" height="1" transform="translate(4.5000000000000000000000000000000000000000000045 14.482051999528444666383482677837269299332234421304) rotate(-2.698030327170210093660809304246686877969007387064e-48) translate(-.5 -.5)"/>
    <rect width="1" height="1" transform="translate(5.5000000000000000000000000000000000000000000055 14.482051999528444666383482677837269299332234421304) rotate(-2.698030327170210093660809304246686877969007387064e-48) translate(-.5 -.5)"/>
    <rect width="1" height="1" transform="translate(0.5000000000000000000000000000000000000000000005 15.482051999528444666383482677837269299332234422304) rotate(-2.698030327170210093660809304246686877969007387064e-48) translate(-.5 -.5)"/>
    <rect width="1" height="1" transform="translate(1.5000000000000000000000000000000000000000000015 15.482051999528444666383482677837269299332234422304) rotate(-5.518094473484132526968643659506869510209090561949e-54) translate(-.5 -.5)"/>
    <rect width="1" height="1" transform="translate(2.5000000000000000000000000000000000000000000025 15.482051999528444666383482677837269299332234422304) rotate(-2.698030327170210093660809304246686877969007387064e-48) translate(-.5 -.5)"/>
    <rect width="1" height="1" transform="translate(3.5000000000000000000000000000000000000000000035 15.481371266205973016967708017315359847726926026963) rotate(-2.698030327170210093660809304246686877969007387064e-48) translate(-.5 -.5)"/>
    <rect width="1" height="1" transform="translate(4.5000000000000000000000000000000000000000000045 15.482051999528444666383482677837269299332234422304) rotate(-2.698030327170210093660809304246686877969007387064e-48) translate(-.5 -.5)"/>
    <rect width="1" height="1" transform="translate(5.5000000000000000000000000000000000000000000055 15.482051999528444666383482677837269299332234422304) rotate(-3.0069833717603691461146780224734548244032096709853e-54) translate(-.5 -.5)"/>
    <rect width="1" height="1" transform="translate(6.5000000000000000000000000000000000000000000065 15.482051999528444666383482677837269299332234422304) rotate(-2.698030327170210093660809304246686877969007387064e-48) translate(-.5 -.5)"/>
    <rect width="1" height="1" transform="translate(0.5000000000000000000000000000000000000000000005 16.482051999528444666383482677837269299332234423304) rotate(-1.2883465121162899021117955379545171716042468456434e-53) translate(-.5 -.5)"/>
    <rect width="1" height="1" transform="translate(1.5000000000000000000000000000000000000000000015 16.482051999528444666383482677837269299332234423304) rotate(-2.698030327170210093660809304246686877969007387064e-48) translate(-.5 -.5)"/>
    <rect width="1" height="1" transform="translate(2.5000000000000000000000000000000000000000000025 16.482051999528444666383482677837269299332234423304) rotate(-3.0611141799317952352465303810351214328798713120332e-54) translate(-.5 -.5)"/>
    <rect width="1" height="1" transform="translate(3.5000000000000000000000000000000000000000000035 16.4816139025868770657883472276769977173614635564) rotate(-2.698030327170210093660809304246686877969007387064e-48) translate(-.5 -.5)"/>
    <rect width="1" height="1" transform="translate(4.5000000000000000000000000000000000000000000045 16.482051999528444666383482677837269299332234423304) rotate(-2.698030327170210093660809304246686877969007387064e-48) translate(-.5 -.5)"/>
    <rect width="1" height="1" transform="translate(5.5000000000000000000000000000000000000000000055 16.482051999528444666383482677837269299332234423304) rotate(-2.698030327170210093660809304246686877969007387064e-48) translate(-.5 -.5)"/>
    <rect width="1" height="1" transform="translate(6.5000000000000000000000000000000000000000000065 16.482051999528444666383482677837269299332234423304) rotate(-2.698030327170210093660809304246686877969007387064e-48) translate(-.5 -.5)"/>
    <rect width="1" height="1" transform="translate(7.5000000000000000000000000000000000000000000075 16.482051999528444666383482677837269299332234423304) rotate(-2.698030327170210093660809304246686877969007387064e-48) translate(-.5 -.5)"/>
    <rect width="1" height="1" transform="translate(0.5000000000000000000000000000000000000000000005 17.482051999528444666383482677837269299332234424304) rotate(-2.698030327170210093660809304246686877969007387064e-48) translate(-.5 -.5)"/>
    <rect width="1" height="1" transform="translate(1.5000000000000000000000000000000000000000000015 17.482051999528444666383482677837269299332234424304) rotate(-1.4557217642418879557760765884074958789185335266715e-53) translate(-.5 -.5)"/>
    <rect width="1" height="1" transform="translate(2.5000000000000000000000000000000000000000000025 17.482051999528444666383482677837269299332234424304) rotate(-3.7135634921578845369265621226961653734983677132393e-54) translate(-.5 -.5)"/>
    <rect width="1" height="1" transform="translate(3.5000000000000000000000000000000000000000000035 17.481951911007580261044243625483863823062122540023) rotate(-2.698030327170210093660809304246686877969007387064e-48) translate(-.5 -.5)"/>
    <rect width="1" height="1" transform="translate(4.5000000000000000000000000000000000000000000045 17.482051999528444666383482677837269299332234424304) rotate(-2.698030327170210093660809304246686877969007387064e-48) translate(-.5 -.5)"/>
    <rect width="1" height="1" transform="translate(5.5000000000000000000000000000000000000000000055 17.482051999528444666383482677837269299332234424304) rotate(-2.698030327170210093660809304246686877969007387064e-48) translate(-.5 -.5)"/>
    <rect width="1" height="1" transform="translate(6.5000000000000000000000000000000000000000000065 17.482051999528444666383482677837269299332234424304) rotate(-1.0125944401969412679753455324095186945443609264573e-53) translate(-.5 -.5)"/>
    <rect width="1" height="1" transform="translate(7.5000000000000000000000000000000000000000000075 17.482051999528444666383482677837269299332234424304) rotate(-2.698030327170210093660809304246686877969007387064e-48) translate(-.5 -.5)"/>
    <rect width="1" height="1" transform="translate(8.5000000000000000000000000000000000000000000085 17.481894785826159169468870283280272927957013228215) rotate(-2.3556352099957905970723357399861206614185402943811e-54) translate(-.5 -.5)"/>
    <rect width="1" height="1" transform="translate(9.5000000000000000000000000000000000000000000095 17.482051999528444666383482677837269299332234424304) rotate(-7.1745445433672715608605544574330943104632647579979e-55) translate(-.5 -.5)"/>
    <rect width="1" height="1" transform="translate(3.4820519995284446663834826778372692993322344103044 0.5000000000000000000000000000000000000000000005) rotate(-2.698030327170210093660809304246686877969007387064e-48) translate(-.5 -.5)"/>
    <rect width="1" height="1" transform="translate(4.4820519995284446663834826778372692993322344113044 0.5000000000000000000000000000000000000000000005) rotate(-2.698030327170210093660809304246686877969007387064e-48) translate(-.5 -.5)"/>
    <rect width="1" height="1" transform="translate(5.4820519995284446663834826778372692993322344123044 0.5000000000000000000000000000000000000000000005) rotate(-2.698030327170210093660809304246686877969007387064e-48) translate(-.5 -.5)"/>
    <rect width="1" height="1" transform="translate(6.4820519995284446663834826778372692993322344133044 0.5000000000000000000000000000000000000000000005) rotate(-2.698030327170210093660809304246686877969007387064e-48) translate(-.5 -.5)"/>
    <rect width="1" height="1" transform="translate(7.4820519995284446663834826778372692993322344143044 0.5000000000000000000000000000000000000000000005) rotate(-3.1623468722426249396506728763225037913688159846229e-54) translate(-.5 -.5)"/>
    <rect width="1" height="1" transform="translate(8.4820519995284446663834826778372692993322344153044 0.5000000000000000000000000000000000000000000005) rotate(-2.698030327170210093660809304246686877969007387064e-48) translate(-.5 -.5)"/>
    <rect width="1" height="1" transform="translate(9.4820519995284446663834826778372692993322344163044 0.5000000000000000000000000000000000000000000005) rotate(-1.1426840521832633556974272390758262678209061284262e-53) translate(-.5 -.5)"/>
    <rect width="1" height="1" transform="translate(10.482051999528444666383482677837269299332234417304 0.5000000000000000000000000000000000000000000005) rotate(-1.128804472518507808920550336625588584359877326092e-54) translate(-.5 -.5)"/>
    <rect width="1" height="1" transform="translate(11.482051999528444666383482677837269299332234418304 0.5000000000000000000000000000000000000000000005) rotate(-2.698030327170210093660809304246686877969007387064e-48) translate(-.5 -.5)"/>
    <rect width="1" height="1" transform="translate(12.482051999528444666383482677837269299332234419304 0.5000000000000000000000000000000000000000000005) rotate(-2.698030327170210093660809304246686877969007387064e-48) translate(-.5 -.5)"/>
    <rect width="1" height="1" transform="translate(13.482051999528444666383482677837269299332234420304 0.5000000000000000000000000000000000000000000005) rotate(-3.8153118600054472757104648982797488752274790278212e-54) translate(-.5 -.5)"/>
    <rect width="1" height="1" transform="translate(14.482051999528444666383482677837269299332234421304 0.5000000000000000000000000000000000000000000005) rotate(-1.0859287771612397319227303824066944218691215524197e-53) translate(-.5 -.5)"/>
    <rect width="1" height="1" transform="translate(15.482051999528444666383482677837269299332234422304 0.5000000000000000000000000000000000000000000005) rotate(-1.2008339282255084482891919029191448907597134811856e-53) translate(-.5 -.5)"/>
    <rect width="1" height="1" transform="translate(16.482051999528444666383482677837269299332234423304 0.5000000000000000000000000000000000000000000005) rotate(-2.698030327170210093660809304246686877969007387064e-48) translate(-.5 -.5)"/>
    <rect width="1" height="1" transform="translate(17.482051999528444666383482677837269299332234424304 0.5000000000000000000000000000000000000000000005) rotate(-9.9749577895960179715661811842821137073326432251787e-54) translate(-.5 -.5)"/>
    <rect width="1" height="1" transform="translate(4.4820519995284446663834826778372692993322344113044 1.5000000000000000000000000000000000000000000015) rotate(-2.2585705008886484169076020967227607766590530968846e-54) translate(-.5 -.5)"/>
    <rect width="1" height="1" transform="translate(5.4820519995284446663834826778372692993322344123044 1.5000000000000000000000000000000000000000000015) rotate(-6.2317152119441068251574016838700581856601058512787e-54) translate(-.5 -.5)"/>
    <rect width="1" height="1" transform="translate(6.4820519995284446663834826778372692993322344133044 1.5000000000000000000000000000000000000000000015) rotate(-2.698030327170210093660809304246686877969007387064e-48) translate(-.5 -.5)"/>
    <rect width="1" height="1" transform="translate(7.4820519995284446663834826778372692993322344143044 1.5000000000000000000000000000000000000000000015) rotate(-2.698030327170210093660809304246686877969007387064e-48) translate(-.5 -.5)"/>
    <rect width="1" height="1" transform="translate(8.4820519995284446663834826778372692993322344153044 1.5000000000000000000000000000000000000000000015) rotate(-2.698030327170210093660809304246686877969007387064e-48) translate(-.5 -.5)"/>
    <rect width="1" height="1" transform="translate(9.4820519995284446663834826778372692993322344163044 1.5000000000000000000000000000000000000000000015) rotate(-2.698030327170210093660809304246686877969007387064e-48) translate(-.5 -.5)"/>
    <rect width="1" height="1" transform="translate(10.482051999528444666383482677837269299332234417304 1.5000000000000000000000000000000000000000000015) rotate(-2.698030327170210093660809304246686877969007387064e-48) translate(-.5 -.5)"/>
    <rect width="1" height="1" transform="translate(11.482051999528444666383482677837269299332234418304 1.5000000000000000000000000000000000000000000015) rotate(-2.698030327170210093660809304246686877969007387064e-48) translate(-.5 -.5)"/>
    <rect width="1" height="1" transform="translate(12.482051999528444666383482677837269299332234419304 1.5000000000000000000000000000000000000000000015) rotate(-2.698030327170210093660809304246686877969007387064e-48) translate(-.5 -.5)"/>
    <rect width="1" height="1" transform="translate(13.482051999528444666383482677837269299332234420304 1.5000000000000000000000000000000000000000000015) rotate(-4.9125983266224075121138886674280968558064681470907e-54) translate(-.5 -.5)"/>
    <rect width="1" height="1" transform="translate(14.482051999528444666383482677837269299332234421304 1.5000000000000000000000000000000000000000000015) rotate(-2.698030327170210093660809304246686877969007387064e-48) translate(-.5 -.5)"/>
    <rect width="1" height="1" transform="translate(15.482051999528444666383482677837269299332234422304 1.5000000000000000000000000000000000000000000015) rotate(-4.9160927936643772926993113270322530745144881693297e-55) translate(-.5 -.5)"/>
    <rect width="1" height="1" transform="translate(16.482051999528444666383482677837269299332234423304 1.5000000000000000000000000000000000000000000015) rotate(-9.90583582861076260728642731259397152410030781962e-54) translate(-.5 -.5)"/>
    <rect width="1" height="1" transform="translate(17.482051999528444666383482677837269299332234424304 1.5000000000000000000000000000000000000000000015) rotate(-2.698030327170210093660809304246686877969007387064e-48) translate(-.5 -.5)"/>
    <rect width="1" height="1" transform="translate(5.4820519995284446663834826778372692993322344123044 2.5000000000000000000000000000000000000000000025) rotate(-5.4832292405886264489578111179740550127629346175555e-54) translate(-.5 -.5)"/>
    <rect width="1" height="1" transform="translate(6.4820519995284446663834826778372692993322344133044 2.5000000000000000000000000000000000000000000025) rotate(-2.698030327170210093660809304246686877969007387064e-48) translate(-.5 -.5)"/>
    <rect width="1" height="1" transform="translate(7.4820519995284446663834826778372692993322344143044 2.5000000000000000000000000000000000000000000025) rotate(-4.8729012168060078729562221974319781598088439699942e-54) translate(-.5 -.5)"/>
    <rect width="1" height="1" transform="translate(8.4820519995284446663834826778372692993322344153044 2.5000000000000000000000000000000000000000000025) rotate(-1.6456227957433027179432911735164747837580784733006e-53) translate(-.5 -.5)"/>
    <rect width="1" height="1" transform="translate(9.4820519995284446663834826778372692993322344163044 2.5000000000000000000000000000000000000000000025) rotate(-2.698030327170210093660809304246686877969007387064e-48) translate(-.5 -.5)"/>
    <rect width="1" height="1" transform="translate(10.482051999528444666383482677837269299332234417304 2.5000000000000000000000000000000000000000000025) rotate(-1.0593019055114342284547328992780628256588044216667e-53) translate(-.5 -.5)"/>
    <rect width="1" height="1" transform="translate(11.482051999528444666383482677837269299332234418304 2.5000000000000000000000000000000000000000000025) rotate(-2.698030327170210093660809304246686877969007387064e-48) translate(-.5 -.5)"/>
    <rect width="1" height="1" transform="translate(12.482051999528444666383482677837269299332234419304 2.5000000000000000000000000000000000000000000025) rotate(-2.698030327170210093660809304246686877969007387064e-48) translate(-.5 -.5)"/>
    <rect width="1" height="1" transform="translate(13.482051999528444666383482677837269299332234420304 2.5000000000000000000000000000000000000000000025) rotate(-4.5961263156839261406650355828934606555892090359077e-54) translate(-.5 -.5)"/>
    <rect width="1" height="1" transform="translate(14.482051999528444666383482677837269299332234421304 2.5000000000000000000000000000000000000000000025) rotate(-2.698030327170210093660809304246686877969007387064e-48) translate(-.5 -.5)"/>
    <rect width="1" height="1" transform="translate(15.482051999528444666383482677837269299332234422304 2.5000000000000000000000000000000000000000000025) rotate(-2.698030327170210093660809304246686877969007387064e-48) translate(-.5 -.5)"/>
    <rect width="1" height="1" transform="translate(16.482051999528444666383482677837269299332234423304 2.5000000000000000000000000000000000000000000025) rotate(-2.698030327170210093660809304246686877969007387064e-48) translate(-.5 -.5)"/>
    <rect width="1" height="1" transform="translate(17.482051999528444666383482677837269299332234424304 2.5000000000000000000000000000000000000000000025) rotate(-2.011266500042505028239323562918218762613980034958e-54) translate(-.5 -.5)"/>
    <rect width="1" height="1" transform="translate(6.4820519995284446663834826778372692993322344133044 3.5000000000000000000000000000000000000000000035) rotate(-7.7017617964467426659392769912223591939094952764835e-54) translate(-.5 -.5)"/>
    <rect width="1" height="1" transform="translate(7.4820519995284446663834826778372692993322344143044 3.5000000000000000000000000000000000000000000035) rotate(-2.698030327170210093660809304246686877969007387064e-48) translate(-.5 -.5)"/>
    <rect width="1" height="1" transform="translate(8.4820519995284446663834826778372692993322344153044 3.5000000000000000000000000000000000000000000035) rotate(-2.2471663156152127358283221418288094455371891814492e-54) translate(-.5 -.5)"/>
    <rect width="1" height="1" transform="translate(9.4820519995284446663834826778372692993322344163044 3.5000000000000000000000000000000000000000000035) rotate(-8.8036304147437410516081356815694051312258053745759e-54) translate(-.5 -.5)"/>
    <rect width="1" height="1" transform="translate(10.482051999528444666383482677837269299332234417304 3.5000000000000000000000000000000000000000000035) rotate(-2.698030327170210093660809304246686877969007387064e-48) translate(-.5 -.5)"/>
    <rect width="1" height="1" transform="translate(11.482051999528444666383482677837269299332234418304 3.5000000000000000000000000000000000000000000035) rotate(-2.698030327170210093660809304246686877969007387064e-48) translate(-.5 -.5)"/>
    <rect width="1" height="1" transform="translate(12.482051999528444666383482677837269299332234419304 3.5000000000000000000000000000000000000000000035) rotate(-2.698030327170210093660809304246686877969007387064e-48) translate(-.5 -.5)"/>
    <rect width="1" height="1" transform="translate(13.482051999528444666383482677837269299332234420304 3.5000000000000000000000000000000000000000000035) rotate(-2.698030327170210093660809304246686877969007387064e-48) translate(-.5 -.5)"/>
    <rect width="1" height="1" transform="translate(14.482051999528444666383482677837269299332234421304 3.5000000000000000000000000000000000000000000035) rotate(-2.698030327170210093660809304246686877969007387064e-48) translate(-.5 -.5)"/>
    <rect width="1" height="1" transform="translate(15.482051999528444666383482677837269299332234422304 3.5000000000000000000000000000000000000000000035) rotate(-2.698030327170210093660809304246686877969007387064e-48) translate(-.5 -.5)"/>
    <rect width="1" height="1" transform="translate(16.482051999528444666383482677837269299332234423304 3.5000000000000000000000000000000000000000000035) rotate(-2.1884621356507379803543075459006918766303117966685e-54) translate(-.5 -.5)"/>
    <rect width="1" height="1" transform="translate(17.482051999528444666383482677837269299332234424304 3.5000000000000000000000000000000000000000000035) rotate(-2.698030327170210093660809304246686877969007387064e-48) translate(-.5 -.5)"/>
    <rect width="1" height="1" transform="translate(6.4820519995284446663834826778372692993322344133044 4.5000000000000000000000000000000000000000000045) rotate(-2.698030327170210093660809304246686877969007387064e-48) translate(-.5 -.5)"/>
    <rect width="1" height="1" transform="translate(7.4820519995284446663834826778372692993322344143044 4.5000000000000000000000000000000000000000000045) rotate(-2.698030327170210093660809304246686877969007387064e-48) translate(-.5 -.5)"/>
    <rect width="1" height="1" transform="translate(8.4820519995284446663834826778372692993322344153044 4.5000000000000000000000000000000000000000000045) rotate(-2.698030327170210093660809304246686877969007387064e-48) translate(-.5 -.5)"/>
    <rect width="1" height="1" transform="translate(9.4820519995284446663834826778372692993322344163044 4.5000000000000000000000000000000000000000000045) rotate(-2.698030327170210093660809304246686877969007387064e-48) translate(-.5 -.5)"/>
    <rect width="1" height="1" transform="translate(10.482051999528444666383482677837269299332234417304 4.5000000000000000000000000000000000000000000045) rotate(-1.0064395476609648498331875611052937470430099623133e-53) translate(-.5 -.5)"/>
    <rect width="1" height="1" transform="translate(11.482051999528444666383482677837269299332234418304 4.5000000000000000000000000000000000000000000045) rotate(-2.698030327170210093660809304246686877969007387064e-48) translate(-.5 -.5)"/>
    <rect width="1" height="1" transform="translate(12.482051999528444666383482677837269299332234419304 4.5000000000000000000000000000000000000000000045) rotate(-5.1826582691685565319292496125432456021887945338302e-55) translate(-.5 -.5)"/>
    <rect width="1" height="1" transform="translate(13.482051999528444666383482677837269299332234420304 4.5000000000000000000000000000000000000000000045) rotate(-2.698030327170210093660809304246686877969007387064e-48) translate(-.5 -.5)"/>
    <rect width="1" height="1" transform="translate(14.482051999528444666383482677837269299332234421304 4.5000000000000000000000000000000000000000000045) rotate(-2.698030327170210093660809304246686877969007387064e-48) translate(-.5 -.5)"/>
    <rect width="1" height="1" transform="translate(15.482051999528444666383482677837269299332234422304 4.5000000000000000000000000000000000000000000045) rotate(-2.698030327170210093660809304246686877969007387064e-48) translate(-.5 -.5)"/>
    <rect width="1" height="1" transform="translate(16.482051999528444666383482677837269299332234423304 4.5000000000000000000000000000000000000000000045) rotate(-2.698030327170210093660809304246686877969007387064e-48) translate(-.5 -.5)"/>
    <rect width="1" height="1" transform="translate(17.482051999528444666383482677837269299332234424304 4.5000000000000000000000000000000000000000000045) rotate(-1.4056910087627482333170962926404210438527154213904e-54) translate(-.5 -.5)"/>
    <rect width="1" height="1" transform="translate(6.4820519995284446663834826778372692993322344133044 5.5000000000000000000000000000000000000000000055) rotate(-2.2582456143391863420477096471178982975096571626118e-54) translate(-.5 -.5)"/>
    <rect width="1" height="1" transform="translate(7.4820519995284446663834826778372692993322344143044 5.5000000000000000000000000000000000000000000055) rotate(-2.698030327170210093660809304246686877969007387064e-48) translate(-.5 -.5)"/>
    <rect width="1" height="1" transform="translate(8.4820519995284446663834826778372692993322344153044 5.5000000000000000000000000000000000000000000055) rotate(-2.698030327170210093660809304246686877969007387064e-48) translate(-.5 -.5)"/>
    <rect width="1" height="1" transform="translate(9.4820519995284446663834826778372692993322344163044 5.5000000000000000000000000000000000000000000055) rotate(-2.698030327170210093660809304246686877969007387064e-48) translate(-.5 -.5)"/>
    <rect width="1" height="1" transform="translate(10.482051999528444666383482677837269299332234417304 5.5000000000000000000000000000000000000000000055) rotate(-1.9087445600308303891411463661588085925112010724298e-54) translate(-.5 -.5)"/>
    <rect width="1" height="1" transform="translate(11.482051999528444666383482677837269299332234418304 5.5000000000000000000000000000000000000000000055) rotate(-7.4718062523159389060991690955696105127369718529768e-54) translate(-.5 -.5)"/>
    <rect width="1" height="1" transform="translate(12.482051999528444666383482677837269299332234419304 5.5000000000000000000000000000000000000000000055) rotate(-2.698030327170210093660809304246686877969007387064e-48) translate(-.5 -.5)"/>
    <rect width="1" height="1" transform="translate(13.482051999528444666383482677837269299332234420304 5.5000000000000000000000000000000000000000000055) rotate(-2.698030327170210093660809304246686877969007387064e-48) translate(-.5 -.5)"/>
    <rect width="1" height="1" transform="translate(14.482051999528444666383482677837269299332234421304 5.5000000000000000000000000000000000000000000055) rotate(-2.6511024825942123246666758055520963518907627362519e-54) translate(-.5 -.5)"/>
    <rect width="1" height="1" transform="translate(15.482051999528444666383482677837269299332234422304 5.5000000000000000000000000000000000000000000055) rotate(-2.698030327170210093660809304246686877969007387064e-48) translate(-.5 -.5)"/>
    <rect width="1" height="1" transform="translate(16.482051999528444666383482677837269299332234423304 5.5000000000000000000000000000000000000000000055) rotate(-2.698030327170210093660809304246686877969007387064e-48) translate(-.5 -.5)"/>
    <rect width="1" height="1" transform="translate(17.482051999528444666383482677837269299332234424304 5.5000000000000000000000000000000000000000000055) rotate(-2.698030327170210093660809304246686877969007387064e-48) translate(-.5 -.5)"/>
    <rect width="1" height="1" transform="translate(7.4820519995284446663834826778372692993322344143044 6.5000000000000000000000000000000000000000000065) rotate(-5.8219035734597784730464741457761265989307355714487e-54) translate(-.5 -.5)"/>
    <rect width="1" height="1" transform="translate(8.4820519995284446663834826778372692993322344153044 6.5000000000000000000000000000000000000000000065) rotate(-1.2519829906616823042950540835584056394127117770833e-53) translate(-.5 -.5)"/>
    <rect width="1" height="1" transform="translate(9.4820519995284446663834826778372692993322344163044 6.5000000000000000000000000000000000000000000065) rotate(-4.1666899278160377564532880822269880747263592436633e-54) translate(-.5 -.5)"/>
    <rect width="1" height="1" transform="translate(10.482051999528444666383482677837269299332234417304 6.5000000000000000000000000000000000000000000065) rotate(-1.181983205660366587654925699430009634407167979115e-53) translate(-.5 -.5)"/>
    <rect width="1" height="1" transform="translate(11.482051999528444666383482677837269299332234418304 6.5000000000000000000000000000000000000000000065) rotate(-2.698030327170210093660809304246686877969007387064e-48) translate(-.5 -.5)"/>
    <rect width="1" height="1" transform="translate(12.482051999528444666383482677837269299332234419304 6.5000000000000000000000000000000000000000000065) rotate(-2.698030327170210093660809304246686877969007387064e-48) translate(-.5 -.5)"/>
    <rect width="1" height="1" transform="translate(13.482051999528444666383482677837269299332234420304 6.5000000000000000000000000000000000000000000065) rotate(-9.9261569656268176496219299075077296061299512654414e-54) translate(-.5 -.5)"/>
    <rect width="1" height="1" transform="translate(14.482051999528444666383482677837269299332234421304 6.5000000000000000000000000000000000000000000065) rotate(-2.698030327170210093660809304246686877969007387064e-48) translate(-.5 -.5)"/>
    <rect width="1" height="1" transform="translate(15.482051999528444666383482677837269299332234422304 6.5000000000000000000000000000000000000000000065) rotate(-2.698030327170210093660809304246686877969007387064e-48) translate(-.5 -.5)"/>
    <rect width="1" height="1" transform="translate(16.482051999528444666383482677837269299332234423304 6.5000000000000000000000000000000000000000000065) rotate(-2.698030327170210093660809304246686877969007387064e-48) translate(-.5 -.5)"/>
    <rect width="1" height="1" transform="translate(17.482051999528444666383482677837269299332234424304 6.5000000000000000000000000000000000000000000065) rotate(-5.6987557004194966106171259844923805683739955911349e-54) translate(-.5 -.5)"/>
    <rect width="1" height="1" transform="translate(7.4820519995284446663834826778372692993322344143044 7.5000000000000000000000000000000000000000000075) rotate(-1.2964846071914469260224221663633272290254803597267e-53) translate(-.5 -.5)"/>
    <rect width="1" height="1" transform="translate(8.4820519995284446663834826778372692993322344153044 7.5000000000000000000000000000000000000000000075) rotate(-1.2965530303761338798664955347140849477102102562539e-53) translate(-.5 -.5)"/>
    <rect width="1" height="1" transform="translate(9.4820519995284446663834826778372692993322344163044 7.5000000000000000000000000000000000000000000075) rotate(-9.9889787688579269443403355190451425149328409187331e-54) translate(-.5 -.5)"/>
    <rect width="1" height="1" transform="translate(10.482051999528444666383482677837269299332234417304 7.5000000000000000000000000000000000000000000075) rotate(-2.698030327170210093660809304246686877969007387064e-48) translate(-.5 -.5)"/>
    <rect width="1" height="1" transform="translate(11.482051999528444666383482677837269299332234418304 7.5000000000000000000000000000000000000000000075) rotate(-2.698030327170210093660809304246686877969007387064e-48) translate(-.5 -.5)"/>
    <rect width="1" height="1" transform="translate(12.482051999528444666383482677837269299332234419304 7.5000000000000000000000000000000000000000000075) rotate(-1.8880984282786839236676178750823233443553144544334e-54) translate(-.5 -.5)"/>
    <rect width="1" height="1" transform="translate(13.482051999528444666383482677837269299332234420304 7.5000000000000000000000000000000000000000000075) rotate(-2.698030327170210093660809304246686877969007387064e-48) translate(-.5 -.5)"/>
    <rect width="1" height="1" transform="translate(14.482051999528444666383482677837269299332234421304 7.5000000000000000000000000000000000000000000075) rotate(-2.698030327170210093660809304246686877969007387064e-48) translate(-.5 -.5)"/>
    <rect width="1" height="1" transform="translate(15.482051999528444666383482677837269299332234422304 7.5000000000000000000000000000000000000000000075) rotate(-2.698030327170210093660809304246686877969007387064e-48) translate(-.5 -.5)"/>
    <rect width="1" height="1" transform="translate(16.482051999528444666383482677837269299332234423304 7.5000000000000000000000000000000000000000000075) rotate(-6.3824737160831794818270015197266421747819806069008e-54) translate(-.5 -.5)"/>
    <rect width="1" height="1" transform="translate(17.482051999528444666383482677837269299332234424304 7.5000000000000000000000000000000000000000000075) rotate(-1.1446371102128082816883922748725661880960781588214e-53) translate(-.5 -.5)"/>
    <rect width="1" height="1" transform="translate(7.4820519995284446663834826778372692993322344143044 8.5000000000000000000000000000000000000000000084996) rotate(-2.698030327170210093660809304246686877969007387064e-48) translate(-.5 -.5)"/>
    <rect width="1" height="1" transform="translate(8.4820519995284446663834826778372692993322344153044 8.5000000000000000000000000000000000000000000084996) rotate(-1.7480196412867840463576017411766513791642080897626e-54) translate(-.5 -.5)"/>
    <rect width="1" height="1" transform="translate(9.4820519995284446663834826778372692993322344163044 8.5000000000000000000000000000000000000000000084996) rotate(-1.4064757771557823458874349836938119642514469190897e-54) translate(-.5 -.5)"/>
    <rect width="1" height="1" transform="translate(10.482051999528444666383482677837269299332234417304 8.5000000000000000000000000000000000000000000084996) rotate(-1.1240336025424952560910983268981811597873893185548e-53) translate(-.5 -.5)"/>
    <rect width="1" height="1" transform="translate(11.482051999528444666383482677837269299332234418304 8.5000000000000000000000000000000000000000000084996) rotate(-1.7034906380197274307182967719464611917242259127691e-53) translate(-.5 -.5)"/>
    <rect width="1" height="1" transform="translate(12.482051999528444666383482677837269299332234419304 8.5000000000000000000000000000000000000000000084996) rotate(-2.698030327170210093660809304246686877969007387064e-48) translate(-.5 -.5)"/>
    <rect width="1" height="1" transform="translate(13.482051999528444666383482677837269299332234420304 8.5000000000000000000000000000000000000000000084996) rotate(-2.698030327170210093660809304246686877969007387064e-48) translate(-.5 -.5)"/>
    <rect width="1" height="1" transform="translate(14.482051999528444666383482677837269299332234421304 8.5000000000000000000000000000000000000000000084996) rotate(-2.698030327170210093660809304246686877969007387064e-48) translate(-.5 -.5)"/>
    <rect width="1" height="1" transform="translate(15.482051999528444666383482677837269299332234422304 8.5000000000000000000000000000000000000000000084996) rotate(-2.698030327170210093660809304246686877969007387064e-48) translate(-.5 -.5)"/>
    <rect width="1" height="1" transform="translate(16.482051999528444666383482677837269299332234423304 8.5000000000000000000000000000000000000000000084996) rotate(-1.4266530420152501447820908123417927760374289397736e-54) translate(-.5 -.5)"/>
    <rect width="1" height="1" transform="translate(17.482051999528444666383482677837269299332234424304 8.5000000000000000000000000000000000000000000084996) rotate(-2.698030327170210093660809304246686877969007387064e-48) translate(-.5 -.5)"/>
    <rect width="1" height="1" transform="translate(7.4511350658028101534569032023204156363330009903317 9.5000000000000000000000000000000000000000000094996) rotate(-2.698030327170210093660809304246686877969007387064e-48) translate(-.5 -.5)"/>
    <rect width="1" height="1" transform="translate(8.4605589364076969616235145830271730670328155039393 9.5000000000000000000000000000000000000000000094996) rotate(-5.8917692838860644509748749854542235528073196285468e-54) translate(-.5 -.5)"/>
    <rect width="1" height="1" transform="translate(9.4664360693433948767960827634716731758826044580994 9.5000000000000000000000000000000000000000000094996) rotate(-4.7772251596869348763852478076175058603226783170691e-54) translate(-.5 -.5)"/>
    <rect width="1" height="1" transform="translate(10.468993866288638372452624023846396779970743519279 9.5000000000000000000000000000000000000000000094996) rotate(-2.698030327170210093660809304246686877969007387064e-48) translate(-.5 -.5)"/>
    <rect width="1" height="1" transform="translate(11.469534621529206219747720755842100374862898060453 9.5000000000000000000000000000000000000000000094996) rotate(-2.698030327170210093660809304246686877969007387064e-48) translate(-.5 -.5)"/>
    <rect width="1" height="1" transform="translate(12.480421962872291885560116503830884612236631010452 9.5000000000000000000000000000000000000000000094996) rotate(-1.6409972154907172781865715532062140782629276025153e-54) translate(-.5 -.5)"/>
    <rect width="1" height="1" transform="translate(13.481551619499240857180666335108384304210903417402 9.5000000000000000000000000000000000000000000094996) rotate(-2.698030327170210093660809304246686877969007387064e-48) translate(-.5 -.5)"/>
    <rect width="1" height="1" transform="translate(14.481894423558649975802836707486619440994261613281 9.5000000000000000000000000000000000000000000094996) rotate(-2.698030327170210093660809304246686877969007387064e-48) translate(-.5 -.5)"/>
    <rect width="1" height="1" transform="translate(15.481995027101641326794378993628829437153509613274 9.5000000000000000000000000000000000000000000094996) rotate(-2.698030327170210093660809304246686877969007387064e-48) translate(-.5 -.5)"/>
    <rect width="1" height="1" transform="translate(16.482051999528444666383482677837269299332234423304 9.5000000000000000000000000000000000000000000094996) rotate(-2.8566730275260744393209041952341460027420424428829e-54) translate(-.5 -.5)"/>
    <rect width="1" height="1" transform="translate(17.482051999528444666383482677837269299332234424304 9.5000000000000000000000000000000000000000000094996) rotate(-1.3746328983870247619573821991021503201143910491126e-53) translate(-.5 -.5)"/>
    <rect width="1" height="1" transform="translate(7.4820519995284446663834826778372692993322344143044 10.5000000000000000000000000000000000000000000105) rotate(-2.698030327170210093660809304246686877969007387064e-48) translate(-.5 -.5)"/>
    <rect width="1" height="1" transform="translate(8.4820519995284446663834826778372692993322344153044 10.5000000000000000000000000000000000000000000105) rotate(-1.2859027421022114885128487237097454482942979861891e-54) translate(-.5 -.5)"/>
    <rect width="1" height="1" transform="translate(9.4820519995284446663834826778372692993322344163044 10.5000000000000000000000000000000000000000000105) rotate(-9.6363739839320793342397332772916104708103385305824e-54) translate(-.5 -.5)"/>
    <rect width="1" height="1" transform="translate(10.482051999528444666383482677837269299332234417304 10.5000000000000000000000000000000000000000000105) rotate(-1.4464408877734584768335755883571445088076356983842e-53) translate(-.5 -.5)"/>
    <rect width="1" height="1" transform="translate(11.482051999528444666383482677837269299332234418304 10.5000000000000000000000000000000000000000000105) rotate(-3.4275737143310355750069863644690861338222498809976e-54) translate(-.5 -.5)"/>
    <rect width="1" height="1" transform="translate(12.482051999528444666383482677837269299332234419304 10.5000000000000000000000000000000000000000000105) rotate(-2.698030327170210093660809304246686877969007387064e-48) translate(-.5 -.5)"/>
    <rect width="1" height="1" transform="translate(13.482051999528444666383482677837269299332234420304 10.5000000000000000000000000000000000000000000105) rotate(-2.698030327170210093660809304246686877969007387064e-48) translate(-.5 -.5)"/>
    <rect width="1" height="1" transform="translate(14.482051999528444666383482677837269299332234421304 10.5000000000000000000000000000000000000000000105) rotate(-2.698030327170210093660809304246686877969007387064e-48) translate(-.5 -.5)"/>
    <rect width="1" height="1" transform="translate(15.482051999528444666383482677837269299332234422304 10.5000000000000000000000000000000000000000000105) rotate(-2.698030327170210093660809304246686877969007387064e-48) translate(-.5 -.5)"/>
    <rect width="1" height="1" transform="translate(16.482051999528444666383482677837269299332234423304 10.5000000000000000000000000000000000000000000105) rotate(-1.0612387342213152949688058372904987708761099598603e-53) translate(-.5 -.5)"/>
    <rect width="1" height="1" transform="translate(17.482051999528444666383482677837269299332234424304 10.5000000000000000000000000000000000000000000105) rotate(-9.7543542593713405476481249385851766234271041052132e-54) translate(-.5 -.5)"/>
    <rect width="1" height="1" transform="translate(12.482051999528444666383482677837269299332234419304 11.5000000000000000000000000000000000000000000115) rotate(-2.698030327170210093660809304246686877969007387064e-48) translate(-.5 -.5)"/>
    <rect width="1" height="1" transform="translate(13.482051999528444666383482677837269299332234420304 11.5000000000000000000000000000000000000000000115) rotate(-2.698030327170210093660809304246686877969007387064e-48) translate(-.5 -.5)"/>
    <rect width="1" height="1" transform="translate(14.482051999528444666383482677837269299332234421304 11.5000000000000000000000000000000000000000000115) rotate(-1.3810718403247169414570901675754578793299835671872e-54) translate(-.5 -.5)"/>
    <rect width="1" height="1" transform="translate(15.482051999528444666383482677837269299332234422304 11.5000000000000000000000000000000000000000000115) rotate(-2.698030327170210093660809304246686877969007387064e-48) translate(-.5 -.5)"/>
    <rect width="1" height="1" transform="translate(16.482051999528444666383482677837269299332234423304 11.5000000000000000000000000000000000000000000115) rotate(-6.0072278323239976855564093993202657857564709210983e-54) translate(-.5 -.5)"/>
    <rect width="1" height="1" transform="translate(17.482051999528444666383482677837269299332234424304 11.5000000000000000000000000000000000000000000115) rotate(-7.7691376352357852870371048382050871213003212462146e-54) translate(-.5 -.5)"/>
    <rect width="1" height="1" transform="translate(15.482051999528444666383482677837269299332234422304 12.5000000000000000000000000000000000000000000125) rotate(-1.4698988857041592854307329472386228877165335048032e-53) translate(-.5 -.5)"/>
    <rect width="1" height="1" transform="translate(16.482051999528444666383482677837269299332234423304 12.5000000000000000000000000000000000000000000125) rotate(-2.698030327170210093660809304246686877969007387064e-48) translate(-.5 -.5)"/>
    <rect width="1" height="1" transform="translate(17.482051999528444666383482677837269299332234424304 12.5000000000000000000000000000000000000000000125) rotate(-7.4422064606100035598404145799312517264471595542206e-54) translate(-.5 -.5)"/>
    <rect width="1" height="1" transform="translate(16.482051999528444666383482677837269299332234423304 13.5000000000000000000000000000000000000000000135) rotate(-6.0720343220203031192677847016728642206401248632911e-55) translate(-.5 -.5)"/>
    <rect width="1" height="1" transform="translate(17.482051999528444666383482677837269299332234424304 13.5000000000000000000000000000000000000000000135) rotate(-3.9069998406019793240855609434330261785503992598514e-54) translate(-.5 -.5)"/>
    <rect width="1" height="1" transform="translate(17.482051999528444666383482677837269299332234424304 14.5000000000000000000000000000000000000000000145) rotate(-5.7277399048687753659487835654788047567958930180629e-54) translate(-.5 -.5)"/>
    <rect width="1" height="1" transform="translate(5.922378660358116775341841272325165863584251505463 12.164107391619336942641301272426585751676946321834) rotate(-67.642533402211537333772955335683899354184627658916) translate(-.5 -.5)"/>
    <rect width="1" height="1" transform="translate(0.64777234649489863554594240457618702509472353426208 2.022541842057611264775236141741588888444918382933) rotate(-21.360775573193250675760604576621463244500148271022) translate(-.5 -.5)"/>
    <rect width="1" height="1" transform="translate(1.5829906568237333814273613169466153677702147506375 1.668307289830602218365894137559756274368654964973) rotate(-21.360775573193250675760604576621463244500148271022) translate(-.5 -.5)"/>
    <rect width="1" height="1" transform="translate(0.63965140065204989830503150618750073082850984259569 3.102639561843471612459712612334777154779143523187) rotate(-19.76995901140170940551932247574940658761034550025) translate(-.5 -.5)"/>
    <rect width="1" height="1" transform="translate(1.5749517612978025714468856728663400446071924565401 2.748375518271776386502053848208662610348975163555) rotate(-19.76995901140170940551932247574940658761034550025) translate(-.5 -.5)"/>
    <rect width="1" height="1" transform="translate(2.5184269114239937211731374209556995823462616122543 2.41685523476747625534415467174144975993952681909) rotate(-19.76995901140170940551932247574940658761034550025) translate(-.5 -.5)"/>
    <rect width="1" height="1" transform="translate(0.63357612534746708142885759701195247300053711885312 4.187704813043000163366687529165885944442187229163) rotate(-18.638708762285534763602177527512202024617289002306) translate(-.5 -.5)"/>
    <rect width="1" height="1" transform="translate(1.5718511244220132418785874649374285072853095900394 3.840598606804702066813649296790823702574669232285) rotate(-18.638708762285534763602177527512202024617289002306) translate(-.5 -.5)"/>
    <rect width="1" height="1" transform="translate(2.5076512704261112786664808985996508558250555223609 3.486154925386064552360465817156602845341011918938) rotate(-18.638708762285534763602177527512202024617289002306) translate(-.5 -.5)"/>
    <rect width="1" height="1" transform="translate(3.4556167734576976872605650690240298624481947738683 3.167779245868243202608488789477615792321474734172) rotate(-18.638708762285534763602177527512202024617289002306) translate(-.5 -.5)"/>
    <rect width="1" height="1" transform="translate(4.3636450444461281102728047184169402385506657717735 2.730997163809905605634777299166397291859338653739) rotate(-18.638708762285534763602177527512202024617289002306) translate(-.5 -.5)"/>
    <rect width="1" height="1" transform="translate(0.63236661627619863160542107977428002915941235884975 5.24411984363505735929160238616954958298839337681) rotate(-18.418843133912589726322415238497443778249835786698) translate(-.5 -.5)"/>
    <rect width="1" height="1" transform="translate(1.5803347264053092108517879582348529793831806055472 4.925744376743016154634158857017953923848227614928) rotate(-18.418843133912589726322415238497443778249835786698) translate(-.5 -.5)"/>
    <rect width="1" height="1" transform="translate(2.5187222561143376130457815378299735413865236306108 4.578600215107333672143070095589086461431784051174) rotate(-18.418843133912589726322415238497443778249835786698) translate(-.5 -.5)"/>
    <rect width="1" height="1" transform="translate(3.454663089565227998445817991435281836175681714481 4.224109081295180675325101361992187805537471052332) rotate(-18.418843133912589726322415238497443778249835786698) translate(-.5 -.5)"/>
    <rect width="1" height="1" transform="translate(4.4037346068770177315214219883266106306701385260519 3.909046940216876079815778114379763057063207365499) rotate(-18.418843133912589726322415238497443778249835786698) translate(-.5 -.5)"/>
    <rect width="1" height="1" transform="translate(0.63035964082313984696789776678241139864648903334534 6.299885522452669486066338333877668858272791795694) rotate(-18.057685777904249922081680339139681578036389160887) translate(-.5 -.5)"/>
    <rect width="1" height="1" transform="translate(1.5797999852706647333706767219698198580631603323148 5.985909814861050940482849794685437598687434236146) rotate(-18.057685777904249922081680339139681578036389160887) translate(-.5 -.5)"/>
    <rect width="1" height="1" transform="translate(2.5278021633375227346914381480875914094208188895555 5.667523002629214378154625380540303885670122248017) rotate(-18.057685777904249922081680339139681578036389160887) translate(-.5 -.5)"/>
    <rect width="1" height="1" transform="translate(3.4664051035443911986463238060362431084549878014147 5.320307104767183190686910236643308214100447946225) rotate(-18.057685777904249922081680339139681578036389160887) translate(-.5 -.5)"/>
    <rect width="1" height="1" transform="translate(4.4026076589005484647596362448343741257155224403612 4.96572881205597514727200751123820142119381946512) rotate(-18.057685777904249922081680339139681578036389160887) translate(-.5 -.5)"/>
    <rect width="1" height="1" transform="translate(5.351692358705304819415584911054857900685745379459 4.65066228093025514718245296181834530647089812137) rotate(-18.057685777904249922081680339139681578036389160887) translate(-.5 -.5)"/>
    <rect width="1" height="1" transform="translate(0.63035964082313984696789776678241139864648903334534 7.351692358705304819415584911054857900685745381459) rotate(-18.057685777904249922081680339139681578036389160887) translate(-.5 -.5)"/>
    <rect width="1" height="1" transform="translate(1.5828726783255673084862207704175615496417814533757 7.040366791889900677265861850833385655564849711557) rotate(-18.298821470659393679968182859720454879759825033283) translate(-.5 -.5)"/>
    <rect width="1" height="1" transform="translate(2.5323046143456883917023254096201853526575254207936 6.726393864927901761012830277046118868146017427059) rotate(-18.298821470659393679968182859720454879759825033283) translate(-.5 -.5)"/>
    <rect width="1" height="1" transform="translate(3.481837158783214299372798469816081873711131273727 6.40681102913858702229099198355536701313809698266) rotate(-18.51347421773683055327632631488811642309987144918) translate(-.5 -.5)"/>
    <rect width="1" height="1" transform="translate(4.4201746266045540492740860839811609507210338824649 6.059684026520075218661427777509833116250565401026) rotate(-18.51347421773683055327632631488811642309987144918) translate(-.5 -.5)"/>
    <rect width="1" height="1" transform="translate(5.3560532960273253115269536471619906180589388956127 5.705214189228301892875382386390844346911444887671) rotate(-18.51347421773683055327632631488811642309987144918) translate(-.5 -.5)"/>
    <rect width="1" height="1" transform="translate(1.5654353780699949220226885666528572095273240938524 8.0993946190076188734372104197258111860717753800299) rotate(-18.298821470659393679968182859720454879759825033283) translate(-.5 -.5)"/>
    <rect width="1" height="1" transform="translate(2.5148673140901160052387932058554810125430680612704 7.785421692045619957184178845938544398652943095532) rotate(-18.298821470659393679968182859720454879759825033283) translate(-.5 -.5)"/>
    <rect width="1" height="1" transform="translate(3.4642992501102370884548978450581048155588120286883 7.471448765083621040931147272151277611234110811034) rotate(-18.298821470659393679968182859720454879759825033283) translate(-.5 -.5)"/>
    <rect width="1" height="1" transform="translate(4.4118945542102978961693845003296980798488043545337 7.151921993029015679147296897499489286707288843048) rotate(-18.298821470659393679968182859720454879759825033283) translate(-.5 -.5)"/>
    <rect width="1" height="1" transform="translate(5.3503495680373846666489145713423240041149462868465 6.80475562932673314159262546588269381456461881793) rotate(-18.298821470659393679968182859720454879759825033283) translate(-.5 -.5)"/>
    <rect width="1" height="1" transform="translate(2.5604356345542973889467465806696592530683887312261 8.8236138400567745632749022901915939254014465609277) rotate(-18.298821470659393679968182859720454879759825033283) translate(-.5 -.5)"/>
    <rect width="1" height="1" transform="translate(3.5098675705744184721628512198722830560841326986442 8.50964091309477564702187071640432713798261427643) rotate(-18.298821470659393679968182859720454879759825033283) translate(-.5 -.5)"/>
    <rect width="1" height="1" transform="translate(4.4592995065945395553789558590749068590998766660621 8.1956679861327767307688391426170603505637819919323) rotate(-18.298821470659393679968182859720454879759825033283) translate(-.5 -.5)"/>
    <rect width="1" height="1" transform="translate(5.4068948106946003630934425143465001233898689919075 7.876141214078171368984988767965272026036960023946) rotate(-18.298821470659393679968182859720454879759825033283) translate(-.5 -.5)"/>
    <rect width="1" height="1" transform="translate(1.6317024314910599997345681064949452952172881269578 9.2001782722627785337786745477286565705465190401461) rotate(-18.298821470659393679968182859720454879759825033283) translate(-.5 -.5)"/>
    <rect width="1" height="1" transform="translate(3.4802355661782318914408222286658677193229983555315 9.5727014747426951773820654551537959692706233215279) rotate(-18.298821470659393679968182859720454879759825033283) translate(-.5 -.5)"/>
    <rect width="1" height="1" transform="translate(4.4296675021983529746569268678684915223387423229495 9.2587285477806962611290338813665291818517910370303) rotate(-18.298821470659393679968182859720454879759825033283) translate(-.5 -.5)"/>
    <rect width="1" height="1" transform="translate(5.3790994382184740578730315070711153253544862903674 8.9447556208186973448760023075792623944329587525326) rotate(-18.298821470659393679968182859720454879759825033283) translate(-.5 -.5)"/>
    <rect width="1" height="1" transform="translate(4.3834136891232942511451464847681453792359584154613 10.32728586777886075549962839903159275408897569756) rotate(-18.298821470659393679968182859720454879759825033283) translate(-.5 -.5)"/>
    <rect width="1" height="1" transform="translate(5.3328456251434153343612511239707691822517023828792 10.013312940816861839246596825244325966670143413063) rotate(-18.298821470659393679968182859720454879759825033283) translate(-.5 -.5)"/>
    <rect width="1" height="1" transform="translate(5.4463388913186780371253081317844640981020328136967 3.535713108209766629258174546052805201230201602108) rotate(-4.2541921903439415532456311106244757792494269128159) translate(-.5 -.5)"/>
    <rect width="1" height="1" transform="translate(2.5589351827058518274374729141156101115229157901908 1.269302104572208132246229933138113223236167361493) rotate(-27.971318451249539510446015660000085657439867543605) translate(-.5 -.5)"/>
    <rect width="1" height="1" transform="translate(3.442021212402287096843531922260777590364619051528 1.993033747194052519044655818903902705249489621454) rotate(-21.472230708680732272654831562253317628250063360254) translate(-.5 -.5)"/>
    <rect width="1" height="1" transform="translate(2.5255918663941159934120192304167768503508812529321 9.9520048639167797503283538065237789475394948238859) rotate(-21.511206500029206134883258456443100453825091901715) translate(-.5 -.5)"/>
    <rect width="1" height="1" transform="translate(3.4166762976904892686713951004684141878273802548842 10.675665099809870534802905725879432342055857274054) rotate(-21.511206500029206134883258456443100453825091901715) translate(-.5 -.5)"/>
    <rect width="1" height="1" transform="translate(6.4820519995284446663834826778372692993322344133044 6.522881902061067008987817335774081085778903441772) rotate(-1.2154422841547086708704255253600863477857393604186e-53) translate(-.5 -.5)"/>
    <rect width="1" height="1" transform="translate(6.4820519995284446663834826778372692993322344133044 7.522881902061067008987817335774081085778903442772) rotate(-7.2449407177796727250424127290773446548817619032806e-54) translate(-.5 -.5)"/>
    <rect width="1" height="1" transform="translate(6.3548914610790831341707796787630135612563791127039 8.6394110475882880105604283780913113641940743993794) rotate(-15.680641965543729120693136538574726249307785970334) translate(-.5 -.5)"/>
    <rect width="1" height="1" transform="translate(6.2963320985105974659755995344586153391228244552039 9.7064090719509771040946988482365433437803472898334) rotate(-17.009450662556445257033912756164551568785319641023) translate(-.5 -.5)"/>
    <rect width="1" height="1" transform="translate(4.460795363448652805367451735656891387970298125146 11.361703605329132360802936106809961797343742669032) rotate(-19.037561657921471524813830960157658309711923616949) translate(-.5 -.5)"/>
    <rect width="1" height="1" transform="translate(5.4210150658495547455910308505410941909240424691976 11.060049073449163486590854644810527198304282334926) rotate(-18.302459678460526343822462469393972376688310886706) translate(-.5 -.5)"/>
    <rect width="1" height="1" transform="translate(6.3744541516511708386436694761203394321301623137865 10.731059956491129601535894708575477617018239720969) rotate(-17.317625462477700677380854780182040064859468133566) translate(-.5 -.5)"/>
    <rect width="1" height="1" transform="translate(4.6730990749302685763036089656463092693431857587206 12.346305559210372807807930951384073256484207583356) rotate(-19.037561657921471524813830960157658309711923616949) translate(-.5 -.5)"/>
    <rect width="1" height="1" transform="translate(15.980833934078837909732680215127231532777508854777 17.33718820620203124126413198403103364636572361829) rotate(-69.220258106440493184867637315814904629721162136151) translate(-.5 -.5)"/>
    <rect width="1" height="1" transform="translate(16.317779773968516516012906126872957576423965297145 16.395471046487870480904349347777590958128157826838) rotate(-69.220258106440493184867637315814904629721162136151) translate(-.5 -.5)"/>
    <rect width="1" height="1" transform="translate(14.911259363245696924483262521306118427631825461764 17.33718820620203124126413198403103364636572361829) rotate(-69.220258106440493184867637315814904629721162136151) translate(-.5 -.5)"/>
    <rect width="1" height="1" transform="translate(15.248205203135375530763488433051844471278281904132 16.395471046487870480904349347777590958128157826838) rotate(-69.220258106440493184867637315814904629721162136151) translate(-.5 -.5)"/>
    <rect width="1" height="1" transform="translate(15.572169642934035885448532527865698085357544067508 15.448827966902193508174959041572255148265471076052) rotate(-69.220258106440493184867637315814904629721162136151) translate(-.5 -.5)"/>
    <rect width="1" height="1" transform="translate(13.817735572798794213180482641086238914895455857446 17.352728273981031441434473355338763825768261698241) rotate(-72.126985863875179691823171450915873013719742161483) translate(-.5 -.5)"/>
    <rect width="1" height="1" transform="translate(14.165503774695184723269534188710070444563255707272 16.41416532358883069404750511623901864342910599322) rotate(-72.126985863875179691823171450915873013719742161483) translate(-.5 -.5)"/>
    <rect width="1" height="1" transform="translate(14.489350177445889912569724518965778926052611822018 15.467888283097410448597814945960214437096983372599) rotate(-72.126985863875179691823171450915873013719742161483) translate(-.5 -.5)"/>
    <rect width="1" height="1" transform="translate(14.815117571573671036420985579276379242099519285092 14.522230706905992917865116485826866928613551658822) rotate(-72.126985863875179691823171450915873013719742161483) translate(-.5 -.5)"/>
    <rect width="1" height="1" transform="translate(15.232927872201317490931297998686620531614701768026 13.606254312694654921015881876063783815193589263064) rotate(-72.126985863875179691823171450915873013719742161483) translate(-.5 -.5)"/>
    <rect width="1" height="1" transform="translate(12.730740050871741861475410271859471266143731239829 17.352728273981031441434473355338763825768261698241) rotate(-72.126985863875179691823171450915873013719742161483) translate(-.5 -.5)"/>
    <rect width="1" height="1" transform="translate(13.070517793821417280860133868618872325281486726567 16.411588631097029033654286729087060141487576190703) rotate(-72.126985863875179691823171450915873013719742161483) translate(-.5 -.5)"/>
    <rect width="1" height="1" transform="translate(13.418285995717807790949185416242703854949286576391 15.473025680704828286267318489987314959148420485682) rotate(-72.126985863875179691823171450915873013719742161483) translate(-.5 -.5)"/>
    <rect width="1" height="1" transform="translate(13.742132398468512980249375746498412336438642691138 14.526748640213408040817628319708510752816297865062) rotate(-72.126985863875179691823171450915873013719742161483) translate(-.5 -.5)"/>
    <rect width="1" height="1" transform="translate(14.067898963833808433151272994428990508625575943712 13.581090796769998033092736926933146580268314957859) rotate(-72.126985863875179691823171450915873013719742161483) translate(-.5 -.5)"/>
    <rect width="1" height="1" transform="translate(11.680031888209577543212209797178988369853851988196 17.352728273981031441434473355338763825768261698241) rotate(-72.126985863875179691823171450915873013719742161483) translate(-.5 -.5)"/>
    <rect width="1" height="1" transform="translate(11.98695451568781612443894591369715145632552258654 16.400970606550253905188623108856885278864864928695) rotate(-72.124455842825583606010132140545168525373254576811) translate(-.5 -.5)"/>
    <rect width="1" height="1" transform="translate(12.326731790832062665306506593508781403266186451991 15.459832414136216889528720924596934681054323922016) rotate(-72.124455842825583606010132140545168525373254576811) translate(-.5 -.5)"/>
    <rect width="1" height="1" transform="translate(12.674499411127925029052797785526850631523411146855 14.521271267045230398752722120316560000042674084987) rotate(-72.124455842825583606010132140545168525373254576811) translate(-.5 -.5)"/>
    <rect width="1" height="1" transform="translate(12.998345572957345479843148737623371381895737192025 13.574994973550458684371694964366698523787652255874) rotate(-72.124455842825583606010132140545168525373254576811) translate(-.5 -.5)"/>
    <rect width="1" height="1" transform="translate(13.324111870055605869406255466421091050356085817278 12.629337961891489479310656523846970808658016460183) rotate(-72.124455842825583606010132140545168525373254576811) translate(-.5 -.5)"/>
    <rect width="1" height="1" transform="translate(10.629323725547413224949009322498505473563972736563 17.352728273981031441434473355338763825768261698241) rotate(-72.126985863875179691823171450915873013719742161483) translate(-.5 -.5)"/>
    <rect width="1" height="1" transform="translate(10.910595622597843885261081696874496257513727485812 16.386838352767630349044337273477141088958395644562) rotate(-71.481639832510329236814532459592684073540374196419) translate(-.5 -.5)"/>
    <rect width="1" height="1" transform="translate(11.246730116237597855581968068863519833542060591023 15.444821728998096394416421957565782837008002801742) rotate(-71.481639832510329236814532459592684073540374196419) translate(-.5 -.5)"/>
    <rect width="1" height="1" transform="translate(11.586404476503431122369968171400204553731363918125 14.503990789495738625867658379792702774879791144283) rotate(-71.481639832510329236814532459592684073540374196419) translate(-.5 -.5)"/>
    <rect width="1" height="1" transform="translate(11.934039266099998075239077339589261714024598038278 13.565826209157277603276035006355193395022575354163) rotate(-71.481639832510329236814532459592684073540374196419) translate(-.5 -.5)"/>
    <rect width="1" height="1" transform="translate(12.257842159076719545970216029750096048904779709091 12.619679095050187770814739176556976290529068084192) rotate(-71.481639832510329236814532459592684073540374196419) translate(-.5 -.5)"/>
    <rect width="1" height="1" transform="translate(9.8291554657734637586578050849464399963536915216786 16.395821649765596142623065480575291969136728333636) rotate(-71.216801758328501765790732543764891842599425749817) translate(-.5 -.5)"/>
    <rect width="1" height="1" transform="translate(10.168798770107615597970905001099172409639809170829 15.455082479006805368115779589192783084137120718124) rotate(-71.216801758328501765790732543764891842599425749817) translate(-.5 -.5)"/>
    <rect width="1" height="1" transform="translate(10.504907625317924056897817434289834559750616993366 14.513141240084167619895029630771983613224874090505) rotate(-71.216801758328501765790732543764891842599425749817) translate(-.5 -.5)"/>
    <rect width="1" height="1" transform="translate(10.844550791017360546617040394973519665217828719004 13.572402022175631047230726860836767300411355722069) rotate(-71.216801758328501765790732543764891842599425749817) translate(-.5 -.5)"/>
    <rect width="1" height="1" transform="translate(11.192141891442444028470098775389529919781032322772 12.634365901402538611359492616250306637811970454614) rotate(-71.216801758328501765790732543764891842599425749817) translate(-.5 -.5)"/>
    <rect width="1" height="1" transform="translate(9.1080806224674928170456981796343804224914495470766 15.422839461228670219509343739307041014938373892512) rotate(-69.956009838735054901320892529867721442186627082682) translate(-.5 -.5)"/>
    <rect width="1" height="1" transform="translate(9.4476662694365522692871974064211416935449581483565 14.482258325146112264911366642826387270277567807786) rotate(-69.956009838735054901320892529867721442186627082682) translate(-.5 -.5)"/>
    <rect width="1" height="1" transform="translate(9.7837456213880127294956509193088509330618465793652 13.540397952526545868561057513953214919884108369666) rotate(-69.956009838735054901320892529867721442186627082682) translate(-.5 -.5)"/>
    <rect width="1" height="1" transform="translate(10.123331130826669376574160250003430024035153187498 12.599816766267401136525518668589985369052749781304) rotate(-69.956009838735054901320892529867721442186627082682) translate(-.5 -.5)"/>
    <rect width="1" height="1" transform="translate(8.7069495534476448744266474903769740548135719018808 16.340966367938684833080798937626029156777522161721) rotate(-69.956009838735054901320892529867721442186627082682) translate(-.5 -.5)"/>
    <rect width="1" height="1" transform="translate(8.3682064385000541354613996734900833512112233883829 14.520996340042515334210373295891871650749013983079) rotate(-70.434588461962819419999116063483365967734140278198) translate(-.5 -.5)"/>
    <rect width="1" height="1" transform="translate(8.7042776358773097661014556329754893223424575140036 13.579158911949336043143926672559137882899128174489) rotate(-70.434588461962819419999116063483365967734140278198) translate(-.5 -.5)"/>
    <rect width="1" height="1" transform="translate(9.0438654303829562544245397824635789311365367734215 12.638571296196936633997186661909664796584570903893) rotate(-70.434588461962819419999116063483365967734140278198) translate(-.5 -.5)"/>
    <rect width="1" height="1" transform="translate(7.6480772369861951064229574678414560323433293324206 13.562026808683898966705158366827066901566869396978) rotate(-70.325346096937788494930121662834730995350969894735) translate(-.5 -.5)"/>
    <rect width="1" height="1" transform="translate(7.9841610280106844636333586094865478695344958649159 12.619756974741116804515931000782176763168152237971) rotate(-70.372610690638424444253658678144728721501229421149) translate(-.5 -.5)"/>
    <rect width="1" height="1" transform="translate(14.428535885104878261597065574306988407156692742371 12.553516114423566404786417103530280892175541691434) rotate(-83.483260586177451581403848392816677913295560980127) translate(-.5 -.5)"/>
    <rect width="1" height="1" transform="translate(16.705069649715523344995082871210048278872218430168 15.420341471003281207456639806793630941986664148533) rotate(-63.274988838402483901918277980802486535867466668944) translate(-.5 -.5)"/>
    <rect width="1" height="1" transform="translate(15.977279756969039017648876669183724454522186722496 14.53297641106632714009927520741869139917630103416) rotate(-69.220258106440493184867637315814904629721162136151) translate(-.5 -.5)"/>
    <rect width="1" height="1" transform="translate(7.9668854708525804571601743517584327515261425077674 15.439643745184704270058513523857698190265304647093) rotate(-70.434588461962819419999116063483365967734140278198) translate(-.5 -.5)"/>
    <rect width="1" height="1" transform="translate(7.2348504581777974512713445310433164960670775702049 14.540569976156474764511913360515209688631885135207) rotate(-62.884597643909819894623968094731887988579300311897) translate(-.5 -.5)"/>
    <rect width="1" height="1" transform="translate(11.438101993672973117227087244351699820469414982867 11.5000000000000000000000000000000000000000000115) rotate(-8.7207335417417443598459962549736283638675083753869e-54) translate(-.5 -.5)"/>
    <rect width="1" height="1" transform="translate(10.438101993672973117227087244351699820469414981867 11.5000000000000000000000000000000000000000000115) rotate(-2.5988373041696244439331232218251527643569238914305e-54) translate(-.5 -.5)"/>
    <rect width="1" height="1" transform="translate(9.3099304812421010572772727879100754810707875274252 11.5000000000000000000000000000000000000000000115) rotate(-1.7214139074428911368264159976507580732457211238321e-53) translate(-.5 -.5)"/>
    <rect width="1" height="1" transform="translate(8.3099304812421010572772727879100754810707875264252 11.5000000000000000000000000000000000000000000115) rotate(-9.2933552271721421862298496360926395452903142663346e-54) translate(-.5 -.5)"/>
    <rect width="1" height="1" transform="translate(6.5199377560173717275891725881795977207152387199377 13.655131372681558111176974062917342000780335921991) rotate(-67.662062046395110402429637931699224770488334471636) translate(-.5 -.5)"/>
    <rect width="1" height="1" transform="translate(6.8930213276026075214218888998035927111282608094399 12.702344182766378712924876434661240416712156982766) rotate(-70.372610690638424444253658678144728721501229421149) translate(-.5 -.5)"/>
    <rect width="1" height="1" transform="translate(7.1710310539561267191910918266286832054753560930042 11.739801542195000935033422195499849796879264776922) rotate(-70.372610690638424444253658678144728721501229421149) translate(-.5 -.5)"/>
    <rect width="1" height="1" transform="translate(5.6525134791738530482641467166283252395845827002603 13.135044476558326518600925299532387410472079929135) rotate(-67.662062046395110402429637931699224770488334471636) translate(-.5 -.5)"/>
    <use xlink:href="#outer" style="fill:none"/>
</svg>
